<svg>
<g>
<path stroke-width="1px" fill="none" stroke="#000000"
d="M 6.0742,532.175 127.2782,529.07403 317.1252,277.548 408.1922,335.231 525.4212,207.508 548.5362,201.054 570.8982,68.524 500.2762,0 349.5522,91.901 150.7962,337.813 0,525.61107 z"
id="path1"
/>
<text x="303.559090909091" y="282.403554545454"
font-family="Arial" font-size="30" fill="blue" >
0
</text>
</g>
<g>
<path stroke-width="1px" fill="none" stroke="#000000"
d="M 880.3732,328.688 885.91421,321.4643 647.6072,0 575.8982,50.554 759.1402,326.87927 z"
id="path2"
/>
<text x="734.786602" y="205.517114"
font-family="Arial" font-size="30" fill="blue" >
1
</text>
</g>
<g>
<path stroke-width="1px" fill="none" stroke="#000000"
d="M 1126.93721,21.2073 1135.36561,101.1399 1090.10901,36.2914 1028.03871,98.2843 1075.96151,196.4603 982.98321,250.9903 984.19021,230.0553 890.91421,64.6906 946.73621,52.9272 995.46321,0 1016.29121,37.4238 z"
id="path3"
/>
<text x="1009.81730090909" y="99.0427636363636"
font-family="Arial" font-size="30" fill="blue" >
2
</text>
</g>
<g>
<path stroke-width="1px" fill="none" stroke="#000000"
d="M 1207.46361,57.3435 1140.36561,265.7115 1165.93641,559.4305 1207.3646202,617.4685 1512.31061,618.5495 1581.23861,542.7265 1649.35361,227.6295 1541.24961,164.0315 1483.32661,31.589 1448.61061,0 1341.00861,66.8918 z"
id="path4"
/>
<text x="1373.92986547273" y="286.488345454545"
font-family="Arial" font-size="30" fill="blue" >
3
</text>
</g>
<g>
<path stroke-width="1px" fill="none" stroke="#000000"
d="M 1962.20761,174.16 1958.45953,176.29015 1773.85261,0 1654.35361,67.353 1695.88761,315.674 1937.77881,317.738 z"
id="path5"
/>
<text x="1815.42329666667" y="175.202525"
font-family="Arial" font-size="30" fill="blue" >
4
</text>
</g>
<g>
<path stroke-width="1px" fill="none" stroke="#000000"
d="M 139.311,875.1425 150.7003,875.733856 304.945,624.8115 0,623.5495 z"
id="path6"
/>
<text x="133.739075" y="749.809339"
font-family="Arial" font-size="30" fill="blue" >
5
</text>
</g>
<g>
<path stroke-width="1px" fill="none" stroke="#000000"
d="M 309.945,767.2115 325.9769,623.5495 428.904,695.0005 421.247,772.20458 z"
id="path7"
/>
<text x="356.518225" y="714.49152"
font-family="Arial" font-size="30" fill="blue" >
6
</text>
</g>
<g>
<path stroke-width="1px" fill="none" stroke="#000000"
d="M 433.904,729.4405 508.8904,623.5495 685.801,726.25686 713.15,942.8955 662.041,910.2435 558.887,978.7455 480.0089,980.5025 z"
id="path8"
/>
<text x="562.526042857143" y="841.66198"
font-family="Arial" font-size="30" fill="blue" >
7
</text>
</g>
<g>
<path stroke-width="1px" fill="none" stroke="#000000"
d="M 995.038,764.2365 745.751,623.5495 718.15,722.2345 753.89,1014.5915 863.446,998.6545 868.922,954.2005 986.15851,904.2595 z"
id="path9"
/>
<text x="832.336501428572" y="854.532357142857"
font-family="Arial" font-size="30" fill="blue" >
8
</text>
</g>
<g>
<path stroke-width="1px" fill="none" stroke="#000000"
d="M 1125.471,623.5495 1000.038,709.6215 1009.989,854.9225 1105.5282,960.0665 1159.2283,839.8335 z"
id="path10"
/>
<text x="1065.0509" y="797.5987"
font-family="Arial" font-size="30" fill="blue" >
9
</text>
</g>
<g>
<path stroke-width="1px" fill="none" stroke="#000000"
d="M 1164.2283,699.2223 1249.6859,802.9653 1256.5789,655.197 1207.2253,623.5495 z"
id="path11"
/>
<text x="1204.4296" y="695.233525"
font-family="Arial" font-size="30" fill="blue" >
10
</text>
</g>
<g>
<path stroke-width="1px" fill="none" stroke="#000000"
d="M 1270.51212,623.5495 1324.23722,639.7614 1297.82042,677.6759 1261.5789,674.8561 z"
id="path12"
/>
<text x="1273.537165" y="653.960725"
font-family="Arial" font-size="30" fill="blue" >
11
</text>
</g>
<g>
<path stroke-width="1px" fill="none" stroke="#000000"
d="M 1333.63708,698.4717 1329.23722,638.9854 1438.83908,623.5495 1466.93808,678.1456 1417.57478,749.8281 z"
id="path13"
/>
<text x="1382.245248" y="677.79606"
font-family="Arial" font-size="30" fill="blue" >
12
</text>
</g>
<g>
<path stroke-width="1px" fill="none" stroke="#000000"
d="M 1471.93808,639.39 1490.83938,772.219 1569.69128,774.903 1567.72658,771.066 1604.88108,623.5495 z"
id="path14"
/>
<text x="1526.01528" y="716.2255"
font-family="Arial" font-size="30" fill="blue" >
13
</text>
</g>
<g>
<path stroke-width="1px" fill="none" stroke="#000000"
d="M 1610.132685,726.7715 1658.048585,760.5559 1646.015085,798.8016 1778.625685,667.4801 1945.385685,753.7996 1928.035685,707.4989 1832.113685,623.5495 1638.136085,634.4686 1609.88108,665.3694 z"
id="path15"
/>
<text x="1723.48602888889" y="704.255011111111"
font-family="Arial" font-size="30" fill="blue" >
14
</text>
</g>
<g>
<path stroke-width="1px" fill="none" stroke="#000000"
d="M 284.354,1372.4615 246.6338,1559.9615 0,1566.1815 5.31500000000001,1163.7755 28.688,1158.2625 80.2,1019.5915 102.133,1053.1565 131.017,1062.1775 200.4329,1304.1892 z"
id="path16"
/>
<text x="104.863744444444" y="1251.08413333333"
font-family="Arial" font-size="30" fill="blue" >
15
</text>
</g>
<g>
<path stroke-width="1px" fill="none" stroke="#000000"
d="M 519.39,1019.5915 771.801,1030.2541 642.886,1157.4185 586.6041,1166.7355 558.4653,1265.0945 450.7014,1385.6215 289.354,1369.8935 368.357,1066.6011 494.7261,1062.4455 z"
id="path17"
/>
<text x="505.253877777778" y="1169.29507777778"
font-family="Arial" font-size="30" fill="blue" >
16
</text>
</g>
<g>
<path stroke-width="1px" fill="none" stroke="#000000"
d="M 776.801,1101.7562 848.8155,1019.5915 1017.699,1304.9192 z"
id="path18"
/>
<text x="866.105166666667" y="1142.08896666667"
font-family="Arial" font-size="30" fill="blue" >
17
</text>
</g>
<g>
<path stroke-width="1px" fill="none" stroke="#000000"
d="M 1134.15,1019.5915 1121.9061,1070.2234 1050.5772,1074.9438 1022.699,1032.2944 z"
id="path19"
/>
<text x="1067.333075" y="1049.263275"
font-family="Arial" font-size="30" fill="blue" >
18
</text>
</g>
<g>
<path stroke-width="1px" fill="none" stroke="#000000"
d="M 1384.379,1076.6577 1329.6364,1019.5915 1139.15,1371.4987 1140.266,1373.1987 1313.0551,1205.4467 z"
id="path20"
/>
<text x="1246.2973" y="1209.27866"
font-family="Arial" font-size="30" fill="blue" >
19
</text>
</g>
<g>
<path stroke-width="1px" fill="none" stroke="#000000"
d="M 1472.1565,1019.5915 1506.7431,1063.8425 1617.4925,1045.8806 1618.2105,1024.04736 1699.3655,1122.3595 1624.0245,1409.9985 1507.3759,1466.2425 1461.4211,1437.0905 1389.379,1190.8565 z"
id="path21"
/>
<text x="1529.01873333333" y="1197.76771777778"
font-family="Arial" font-size="30" fill="blue" >
20
</text>
</g>
<g>
<path stroke-width="1px" fill="none" stroke="#000000"
d="M 2079.8835,1366.7255 2165.2469,1248.9195 2113.7163,1187.2295 1704.3655,1186.0125 1752.4225,1107.0115 1815.0755,1100.0995 2093.7402,1132.1955 2224.0705,1019.5915 2357.5625,1082.5695 2338.2455,1185.8345 z"
id="path22"
/>
<text x="2049.43289" y="1161.6189"
font-family="Arial" font-size="30" fill="blue" >
21
</text>
</g>
<g>
<path stroke-width="1px" fill="none" stroke="#000000"
d="M 283.08,1963.0935 36.638,1898.0148 0,1713.5335 150.257,1687.0545 263.0109,1571.1815 z"
id="path23"
/>
<text x="131.59718" y="1766.57556"
font-family="Arial" font-size="30" fill="blue" >
22
</text>
</g>
<g>
<path stroke-width="1px" fill="none" stroke="#000000"
d="M 320.8111,1571.1815 653.9271,1686.9245 675.4041,1810.5775 288.08,1678.1185 z"
id="path24"
/>
<text x="469.555575" y="1686.7005"
font-family="Arial" font-size="30" fill="blue" >
23
</text>
</g>
<g>
<path stroke-width="1px" fill="none" stroke="#000000"
d="M 770.9247,1725.9485 823.7208,1696.1011 701.0373,1571.1815 680.4041,1613.3415 769.52905,1701.4133 z"
id="path25"
/>
<text x="734.12319" y="1661.59718"
font-family="Arial" font-size="30" fill="blue" >
24
</text>
</g>
<g>
<path stroke-width="1px" fill="none" stroke="#000000"
d="M 871.6424,2043.3405 925.1896,2053.05353 991.3064,1973.6064 987.7934,1571.1815 841.9807,1664.9625 828.7208,1648.7095 z"
id="path26"
/>
<text x="892.772216666667" y="1825.80898833333"
font-family="Arial" font-size="30" fill="blue" >
25
</text>
</g>
<g>
<path stroke-width="1px" fill="none" stroke="#000000"
d="M 996.3064,1669.1498 999.2614,1672.28897 1123.9084,1657.6531 1091.1323,1571.1815 z"
id="path27"
/>
<text x="1037.652125" y="1642.5683425"
font-family="Arial" font-size="30" fill="blue" >
26
</text>
</g>
<g>
<path stroke-width="1px" fill="none" stroke="#000000"
d="M 1128.9084,1736.9265 1197.507,1859.3075 1460.7024,1720.958 1420.7024,1644.6907 1176.6438,1571.1815 z"
id="path28"
/>
<text x="1261.8928" y="1706.61284"
font-family="Arial" font-size="30" fill="blue" >
27
</text>
</g>
<g>
<path stroke-width="1px" fill="none" stroke="#000000"
d="M 1476.7612,1624.3212 1497.8816,1620.57866 1485.33787,1571.1815 1465.7024,1580.679 z"
id="path29"
/>
<text x="1466.4207675" y="1599.19009"
font-family="Arial" font-size="30" fill="blue" >
28
</text>
</g>
<g>
<path stroke-width="1px" fill="none" stroke="#000000"
d="M 1539.0325,1571.1815 1502.8816,1691.2825 1802.9755,1867.3515 1947.3295,1817.9505 1787.6725,1789.8415 1650.2065,1578.44808 z"
id="path30"
/>
<text x="1690.01635" y="1719.34259666667"
font-family="Arial" font-size="30" fill="blue" >
29
</text>
</g>
<g>
<path stroke-width="1px" fill="none" stroke="#000000"
d="M 24.6532,2184.17653 95.4267,2174.08353 98.2576,2152.82013 40.9812,2058.07753 29.57621,2058.05353 0,2157.43533 z"
id="path31"
/>
<text x="33.1491516666667" y="2130.77443"
font-family="Arial" font-size="30" fill="blue" >
30
</text>
</g>
<g>
<path stroke-width="1px" fill="none" stroke="#000000"
d="M 316.8596,2161.62753 238.7039,2058.05353 103.2576,2077.49573 189.8846,2242.80543 217.1811,2255.86693 z"
id="path32"
/>
<text x="198.17736" y="2159.16983"
font-family="Arial" font-size="30" fill="blue" >
31
</text>
</g>
<g>
<path stroke-width="1px" fill="none" stroke="#000000"
d="M 600.2716,2198.29253 563.7417,2061.00253 321.8596,2058.05353 377.7376,2150.69033 z"
id="path33"
/>
<text x="450.902625" y="2117.00973"
font-family="Arial" font-size="30" fill="blue" >
32
</text>
</g>
<g>
<path stroke-width="1px" fill="none" stroke="#000000"
d="M 605.2716,2152.08933 643.5532,2542.63233 697.6323,2609.65633 823.9046,2580.92833 786.0466,2185.78953 645.5651,2058.05353 z"
id="path34"
/>
<text x="685.3289" y="2354.85823"
font-family="Arial" font-size="30" fill="blue" >
33
</text>
</g>
<g>
<path stroke-width="1px" fill="none" stroke="#000000"
d="M 982.0776,2058.05353 851.1536,2082.04763 828.9046,2184.72753 991.88166,2116.89063 z"
id="path35"
/>
<text x="898.504365" y="2110.42983"
font-family="Arial" font-size="30" fill="blue" >
34
</text>
</g>
<g>
<path stroke-width="1px" fill="none" stroke="#000000"
d="M 1056.59656,2058.05353 996.88166,2170.67053 1249.01656,2186.57453 1235.70756,2209.66753 1295.53156,2248.82053 1271.01356,2078.33333 z"
id="path36"
/>
<text x="1169.12457666667" y="2158.68666333333"
font-family="Arial" font-size="30" fill="blue" >
35
</text>
</g>
<g>
<path stroke-width="1px" fill="none" stroke="#000000"
d="M 1314.17676,2080.94983 1300.53156,2058.05353 1302.72126,2239.11483 1340.53346,2177.90443 1664.93276,2215.26383 1694.34976,2082.13003 1632.20376,2071.59023 z"
id="path37"
/>
<text x="1449.20704571429" y="2132.14381571429"
font-family="Arial" font-size="30" fill="blue" >
36
</text>
</g>
<g>
<path stroke-width="1px" fill="none" stroke="#000000"
d="M 1724.33506,2058.05353 1699.34976,2092.84093 2052.00306,2091.05113 2049.54706,2087.49623 z"
id="path38"
/>
<text x="1866.308735" y="2082.360455"
font-family="Arial" font-size="30" fill="blue" >
37
</text>
</g>
<g>
<path stroke-width="1px" fill="none" stroke="#000000"
d="M 0,2752.74533 12.3032,2829.34053 231.118,2954.58733 250.397,2641.81133 163.71,2614.65633 13.6901,2773.16893 z"
id="path39"
/>
<text x="96.8697166666667" y="2761.05163"
font-family="Arial" font-size="30" fill="blue" >
38
</text>
</g>
<g>
<path stroke-width="1px" fill="none" stroke="#000000"
d="M 430.868,2716.80633 355.9167,2614.65633 255.397,2758.02383 356.9989,2828.80733 z"
id="path40"
/>
<text x="334.79515" y="2729.573455"
font-family="Arial" font-size="30" fill="blue" >
39
</text>
</g>
<g>
<path stroke-width="1px" fill="none" stroke="#000000"
d="M 459.3493,2925.32733 435.868,2883.88973 470.1399,2695.72933 695.0063,2730.69133 757.2503,2614.65633 757.8923,2909.48653 z"
id="path41"
/>
<text x="580.917683333333" y="2793.29676333333"
font-family="Arial" font-size="30" fill="blue" >
41
</text>
</g>
<g>
<path stroke-width="1px" fill="none" stroke="#000000"
d="M 762.8923,2691.78683 788.2185,2815.66083 972.0443,2853.98683 987.4403,2718.02103 810.9129,2614.65633 z"
id="path42"
/>
<text x="849.30166" y="2738.82237"
font-family="Arial" font-size="30" fill="blue" >
42
</text>
</g>
<g>
<path stroke-width="1px" fill="none" stroke="#000000"
d="M 1345.2223,2900.03833 1333.9861,2712.28933 1000.0223,2614.65633 992.4403,2936.94233 1256.3272,3047.84733 z"
id="path43"
/>
<text x="1170.59964" y="2842.35473"
font-family="Arial" font-size="30" fill="blue" >
43
</text>
</g>
<g>
<path stroke-width="1px" fill="none" stroke="#000000"
d="M 1622.1643,2683.45793 1668.0783,2628.65723 1350.2223,2614.65633 z"
id="path44"
/>
<text x="1531.82163333333" y="2642.25716333333"
font-family="Arial" font-size="30" fill="blue" >
44
</text>
</g>
<g>
<path stroke-width="1px" fill="none" stroke="#000000"
d="M 1931.4863,2961.67033 1829.8253,2941.26143 1840.5058,2896.30843 1673.0783,2806.02133 1706.5033,2633.70833 2004.8597,2614.65633 2012.0551,2685.59933 z"
id="path45"
/>
<text x="1841.90197142857" y="2791.31793"
font-family="Arial" font-size="30" fill="blue" >
45
</text>
</g>
<g>
<path stroke-width="1px" fill="none" stroke="#000000"
d="M 35.5776,3273.10933 212.5946,3138.97933 194.1276,3052.84733 0,3060.69433 z"
id="path46"
/>
<text x="95.57495" y="3131.40758"
font-family="Arial" font-size="30" fill="blue" >
46
</text>
</g>
<g>
<path stroke-width="1px" fill="none" stroke="#000000"
d="M 217.5946,3145.27563 275.6002,3059.72993 522.2166,3052.84733 539.3506,3097.28683 452.0096,3249.53863 z"
id="path47"
/>
<text x="386.35432" y="3120.93567"
font-family="Arial" font-size="30" fill="blue" >
47
</text>
</g>
<g>
<path stroke-width="1px" fill="none" stroke="#000000"
d="M 668.9976,3131.90913 798.3866,3100.69123 766.4415,3053.79563 544.3506,3052.84733 z"
id="path48"
/>
<text x="679.544075" y="3084.81083"
font-family="Arial" font-size="30" fill="blue" >
48
</text>
</g>
<g>
<path stroke-width="1px" fill="none" stroke="#000000"
d="M 803.3866,3116.98483 911.4936,3093.25133 900.5072,3052.84733 812.79896,3061.02753 z"
id="path49"
/>
<text x="842.04659" y="3081.027755"
font-family="Arial" font-size="30" fill="blue" >
49
</text>
</g>
<g>
<path stroke-width="1px" fill="none" stroke="#000000"
d="M 921.89491,3052.84733 916.4936,3060.16825 923.30501,3054.3235 z"
id="path50"
/>
<text x="905.564506666667" y="3055.77969333333"
font-family="Arial" font-size="30" fill="blue" >
50
</text>
</g>
</svg>
