<svg   width="24in" height="12in">
<g>
<path stroke-width="0.01in" fill="none" stroke="#000000"
d="M 23.1912,391.95126 0,366.5655 95.4072,249.0165 243.8838,67.545 356.0697,0 408.1734,51.1056 391.0338,149.2839 373.8663,153.9963 286.3755,248.2263 219.0618,205.0866 77.20272,390.87126 z"
id="path1"
/>
<path stroke-width="0.01in" fill="none" stroke="#000000"
d="M 261.7614,202.5405 272.5416,185.7177 281.6343,191.5461 270.8541,208.3671 z"
id="path2"
/>
<path stroke-width="0.01in" fill="none" stroke="#000000"
d="M 311.1273,190.845 296.4852,177.2505 303.8346,169.3359 318.4758,182.9313 z"
id="path3"
/>
<path stroke-width="0.01in" fill="none" stroke="#000000"
d="M 375.8067,131.0247 370.5174,111.7575 380.9322,108.8982 386.2215,128.1663 z"
id="path4"
/>
<path stroke-width="0.01in" fill="none" stroke="#000000"
d="M 354.5631,35.3043 340.5726,49.5684 332.8623,42.0057 346.8537,27.7416 z"
id="path5"
/>
<path stroke-width="0.01in" fill="none" stroke="#000000"
d="M 316.5804,50.8815 326.8863,67.9977 317.6334,73.5696 307.3284,56.4525 z"
id="path6"
/>
<path stroke-width="0.01in" fill="none" stroke="#000000"
d="M 192.0357,169.623 207.4986,182.2752 200.6604,190.6344 185.1966,177.9813 z"
id="path7"
/>
<text x="264.589400571429" y="167.387549142857"
font-family="Arial" font-size="30" fill="blue" >
0
</text>
</g>
<g>
<path stroke-width="0.01in" fill="none" stroke="#000000"
d="M 626.73318,216.61452 536.9769,215.25012 417.1734,34.5231 466.1973,0 z"
id="path8"
/>
<text x="498.270195" y="130.096935"
font-family="Arial" font-size="30" fill="blue" >
1
</text>
</g>
<g>
<path stroke-width="0.01in" fill="none" stroke="#000000"
d="M 702.57888,158.0706 698.89428,151.6329 699.31008,143.577 635.73318,32.48712 664.94088,26.13888 670.22298,20.32488 715.65156,10.45368 716.73444,9.26208 721.76148,8.4924 721.74636,8.46504 777.03732,0 778.10508,9.5472 776.49948,7.27704 776.54556,7.23024 773.51652,2.94912 728.27172,48.71664 730.6974,53.6076 730.74204,53.56224 764.3394,121.3182 z"
id="path9"
/>
<path stroke-width="0.01in" fill="none" stroke="#000000"
d="M 724.14756,122.2137 713.93004,105.0435 704.64888,110.5668 714.86676,127.737 z"
id="path10"
/>
<path stroke-width="0.01in" fill="none" stroke="#000000"
d="M 663.36408,56.33208 680.70528,46.4076 675.34128,37.03392 658.00008,46.9584 z"
id="path11"
/>
<text x="701.9938" y="69.9965133333333"
font-family="Arial" font-size="30" fill="blue" >
2
</text>
</g>
<g>
<path stroke-width="0.01in" fill="none" stroke="#000000"
d="M 1063.01754,458.84826 836.80452,458.04546 806.07348,414.99216 787.10508,197.10666 828.36036,68.99544 896.9922,73.90296 936.04464,49.62456 935.94834,49.61736 1015.76664,0 1041.52014,23.4324 1084.48704,121.68072 1164.67974,168.85836 1114.15014,402.60096 z"
id="path12"
/>
<path stroke-width="0.01in" fill="none" stroke="#000000"
d="M 835.16292,164.25846 854.18028,170.38386 850.86972,180.66276 831.85236,174.53916 z"
id="path13"
/>
<path stroke-width="0.01in" fill="none" stroke="#000000"
d="M 827.35884,352.83366 847.26324,351.10116 848.19996,361.86066 828.29556,363.59316 z"
id="path14"
/>
<path stroke-width="0.01in" fill="none" stroke="#000000"
d="M 846.02772,428.57946 862.28964,416.97126 868.56444,425.76156 852.30252,437.36976 z"
id="path15"
/>
<path stroke-width="0.01in" fill="none" stroke="#000000"
d="M 1001.15604,432.70776 1001.22714,412.72776 1012.02624,412.76646 1011.95604,432.74556 z"
id="path16"
/>
<path stroke-width="0.01in" fill="none" stroke="#000000"
d="M 1058.48064,410.65686 1043.69724,397.21716 1050.96204,389.22516 1065.74544,402.66576 z"
id="path17"
/>
<path stroke-width="0.01in" fill="none" stroke="#000000"
d="M 1121.26194,226.16406 1101.73374,221.94216 1104.01524,211.38606 1123.54344,215.60796 z"
id="path18"
/>
<path stroke-width="0.01in" fill="none" stroke="#000000"
d="M 986.57244,76.32648 997.12134,93.29544 987.94854,98.99712 977.40054,82.02816 z"
id="path19"
/>
<text x="945.235734146341" y="277.697076585366"
font-family="Arial" font-size="30" fill="blue" >
3
</text>
</g>
<g>
<path stroke-width="0.01in" fill="none" stroke="#000000"
d="M 1379.90142,235.5894 1204.61274,234.2106 1173.67974,50.02308 1262.29284,0 1399.2615,130.62276 1397.52126,131.61204 z"
id="path20"
/>
<path stroke-width="0.01in" fill="none" stroke="#000000"
d="M 1369.08918,200.21364 1349.38998,196.87572 1347.58494,207.5238 1367.28414,210.86172 z"
id="path21"
/>
<path stroke-width="0.01in" fill="none" stroke="#000000"
d="M 1283.07474,54.62676 1269.28584,69.0858 1261.47024,61.63236 1275.25914,47.17332 z"
id="path22"
/>
<path stroke-width="0.01in" fill="none" stroke="#000000"
d="M 1213.56774,57.94812 1223.38944,75.34692 1213.98444,80.6562 1204.16274,63.2574 z"
id="path23"
/>
<path stroke-width="0.01in" fill="none" stroke="#000000"
d="M 1221.25914,178.59348 1240.96374,175.28436 1242.75204,185.93532 1223.04834,189.24444 z"
id="path24"
/>
<path stroke-width="0.01in" fill="none" stroke="#000000"
d="M 1289.08494,215.53956 1289.24244,195.55956 1300.04154,195.64452 1299.88494,215.6238 z"
id="path25"
/>
<text x="1267.31112230769" y="154.218641538462"
font-family="Arial" font-size="30" fill="blue" >
4
</text>
</g>
<g>
<path stroke-width="0.01in" fill="none" stroke="#000000"
d="M 1513.77066,184.48668 1510.3701,184.311 1408.2615,0 1626.597,0.854999999999966 z"
id="path26"
/>
<path stroke-width="0.01in" fill="none" stroke="#000000"
d="M 1571.14386,24.2613 1571.0661,44.2413 1581.86538,44.2836 1581.94386,24.3036 z"
id="path27"
/>
<path stroke-width="0.01in" fill="none" stroke="#000000"
d="M 1503.12762,121.17852 1520.60418,111.49596 1525.83786,120.94308 1508.3613,130.62564 z"
id="path28"
/>
<path stroke-width="0.01in" fill="none" stroke="#000000"
d="M 1554.8121,72.3051 1537.78842,61.8453 1532.13498,71.0469 1549.15794,81.5067 z"
id="path29"
/>
<text x="1523.80267875" y="93.355605"
font-family="Arial" font-size="30" fill="blue" >
5
</text>
</g>
<g>
<path stroke-width="0.01in" fill="none" stroke="#000000"
d="M 1687.95828,90.11952 1635.597,87.67152 1645.5474,0 1693.68012,33.5484 z"
id="path30"
/>
<path stroke-width="0.01in" fill="none" stroke="#000000"
d="M 1665.80028,73.87128 1666.7334,53.91288 1677.52188,54.4176 1676.58876,74.37528 z"
id="path31"
/>
<text x="1655.17839" y="71.98956"
font-family="Arial" font-size="30" fill="blue" >
6
</text>
</g>
<g>
<path stroke-width="0.01in" fill="none" stroke="#000000"
d="M 1736.74692,258.72732 1702.68012,73.48968 1754.6922,0 1879.85124,72.6192 1898.56224,220.52232 1871.76204,203.40972 1866.94884,206.60922 1862.20944,203.58252 1780.70724,257.73732 z"
id="path32"
/>
<path stroke-width="0.01in" fill="none" stroke="#000000"
d="M 1731.95388,119.91816 1751.60412,116.30376 1749.65076,105.68232 1729.9998,109.296 z"
id="path33"
/>
<path stroke-width="0.01in" fill="none" stroke="#000000"
d="M 1755.5166,31.74264 1771.82532,43.28496 1778.06484,34.46928 1761.75612,22.92696 z"
id="path34"
/>
<path stroke-width="0.01in" fill="none" stroke="#000000"
d="M 1833.65874,71.46792 1823.63184,88.74936 1832.97294,94.16952 1842.99984,76.88736 z"
id="path35"
/>
<path stroke-width="0.01in" fill="none" stroke="#000000"
d="M 1861.97004,149.238 1842.14754,151.74576 1843.50384,162.4608 1863.32544,159.95304 z"
id="path36"
/>
<path stroke-width="0.01in" fill="none" stroke="#000000"
d="M 1802.06064,223.81092 1791.00414,207.16992 1782.00828,213.14772 1793.06604,229.78872 z"
id="path37"
/>
<text x="1789.84072551724" y="148.290014482759"
font-family="Arial" font-size="30" fill="blue" >
7
</text>
</g>
<g>
<path stroke-width="0.01in" fill="none" stroke="#000000"
d="M 1931.86314,284.7852 1907.56224,80.98938 1930.47354,0 2107.32894,100.50282 2100.38094,205.1487 2017.31724,240.2289 2013.16914,273.2049 z"
id="path38"
/>
<path stroke-width="0.01in" fill="none" stroke="#000000"
d="M 1949.29074,46.19178 1968.51654,51.63066 1971.45594,41.23818 1952.23104,35.7993 z"
id="path39"
/>
<path stroke-width="0.01in" fill="none" stroke="#000000"
d="M 1946.28564,167.6061 1966.12524,165.24018 1967.40414,175.96458 1947.56454,178.3305 z"
id="path40"
/>
<path stroke-width="0.01in" fill="none" stroke="#000000"
d="M 2045.82294,96.44418 2035.95174,113.81418 2045.34126,119.15082 2055.21246,101.77938 z"
id="path41"
/>
<path stroke-width="0.01in" fill="none" stroke="#000000"
d="M 2078.5455,170.24346 2058.60942,168.91938 2057.89374,179.69562 2077.82982,181.0197 z"
id="path42"
/>
<path stroke-width="0.01in" fill="none" stroke="#000000"
d="M 2045.86974,200.2221 2038.09662,181.81674 2048.04558,177.61482 2055.81942,196.02 z"
id="path43"
/>
<text x="1998.35212" y="159.188946666667"
font-family="Arial" font-size="30" fill="blue" >
8
</text>
</g>
<g>
<path stroke-width="0.01in" fill="none" stroke="#000000"
d="M 2191.56336,229.53204 2123.62776,154.65204 2116.32894,46.85976 2184.73056,0 2212.95312,181.74204 z"
id="path44"
/>
<path stroke-width="0.01in" fill="none" stroke="#000000"
d="M 2192.03352,103.56804 2172.2904,106.63434 2173.94784,117.30564 2193.69096,114.24024 z"
id="path45"
/>
<path stroke-width="0.01in" fill="none" stroke="#000000"
d="M 2163.06648,55.6092 2174.35896,72.09216 2165.44896,78.19524 2154.1572,61.71336 z"
id="path46"
/>
<path stroke-width="0.01in" fill="none" stroke="#000000"
d="M 2142.06048,120.92004 2161.99512,119.57004 2162.72448,130.34574 2142.79056,131.69484 z"
id="path47"
/>
<path stroke-width="0.01in" fill="none" stroke="#000000"
d="M 2171.1024,175.43664 2185.90056,162.01134 2193.15672,170.00964 2178.35928,183.43494 z"
id="path48"
/>
<text x="2155.84703142857" y="133.28892"
font-family="Arial" font-size="30" fill="blue" >
9
</text>
</g>
<g>
<path stroke-width="0.01in" fill="none" stroke="#000000"
d="M 58.18464,591.09282 0,520.43778 29.89152,467.84826 62.95824,489.05874 z"
id="path49"
/>
<path stroke-width="0.01in" fill="none" stroke="#000000"
d="M 32.75352,505.8729 21.96576,522.68994 12.87504,516.85938 23.6628,500.04234 z"
id="path50"
/>
<text x="16.78644" y="527.73777"
font-family="Arial" font-size="30" fill="blue" >
10
</text>
</g>
<g>
<path stroke-width="0.01in" fill="none" stroke="#000000"
d="M 96.48576,497.92338 71.95824,496.20618 76.7268,467.84826 110.35584,477.7245 z"
id="path51"
/>
<text x="75.38166" y="498.42558"
font-family="Arial" font-size="30" fill="blue" >
11
</text>
</g>
<g>
<path stroke-width="0.01in" fill="none" stroke="#000000"
d="M 182.62944,554.3577 122.21496,517.40874 119.35584,478.85418 197.40528,467.84826 216.5661,505.06002 z"
id="path52"
/>
<path stroke-width="0.01in" fill="none" stroke="#000000"
d="M 151.55856,510.09354 161.98344,493.04898 152.7696,487.41426 142.34544,504.45882 z"
id="path53"
/>
<text x="147.25874" y="515.5605"
font-family="Arial" font-size="30" fill="blue" >
12
</text>
</g>
<g>
<path stroke-width="0.01in" fill="none" stroke="#000000"
d="M 295.43058,574.20144 239.00778,572.38704 225.5661,479.16954 319.0941,467.84826 293.47074,570.39444 z"
id="path54"
/>
<path stroke-width="0.01in" fill="none" stroke="#000000"
d="M 272.32506,535.95306 252.94122,531.10962 250.32258,541.58706 269.70642,546.43122 z"
id="path55"
/>
<text x="255.15162" y="548.95352"
font-family="Arial" font-size="30" fill="blue" >
13
</text>
</g>
<g>
<path stroke-width="0.01in" fill="none" stroke="#000000"
d="M 349.58538,597.6261 358.55874,569.27106 358.5933,569.29554 360.03402,564.74514 328.19778,542.21922 328.0941,500.2029 350.91162,475.33122 487.85238,467.84826 558.90648,530.23986 571.72068,564.6069 448.11918,500.3721 z"
id="path56"
/>
<path stroke-width="0.01in" fill="none" stroke="#000000"
d="M 362.81034,534.96234 374.3505,518.65218 365.53482,512.4141 353.99394,528.72426 z"
id="path57"
/>
<path stroke-width="0.01in" fill="none" stroke="#000000"
d="M 410.6637,519.38226 396.62802,505.16226 404.31474,497.57562 418.35078,511.79562 z"
id="path58"
/>
<path stroke-width="0.01in" fill="none" stroke="#000000"
d="M 480.81348,501.2685 490.02678,483.53994 499.60998,488.52018 490.39668,506.24874 z"
id="path59"
/>
<text x="401.633366086956" y="534.804534782609"
font-family="Arial" font-size="30" fill="blue" >
14
</text>
</g>
<g>
<path stroke-width="0.01in" fill="none" stroke="#000000"
d="M 580.72068,851.70456 584.55558,559.27206 600.40188,555.53346 601.92468,551.43126 608.22108,549.94626 638.70948,467.84826 656.43948,473.38326 656.42508,473.36076 673.36398,478.64916 724.0851,655.4205 729.34974,659.69946 731.49606,667.1889 787.71078,712.91178 760.7187,847.14786 z"
id="path60"
/>
<path stroke-width="0.01in" fill="none" stroke="#000000"
d="M 597.32568,574.65666 601.91388,594.10296 612.42498,591.62256 607.83678,572.17626 z"
id="path61"
/>
<path stroke-width="0.01in" fill="none" stroke="#000000"
d="M 607.64058,774.24714 627.61878,774.50922 627.47658,785.30778 607.49928,785.0457 z"
id="path62"
/>
<path stroke-width="0.01in" fill="none" stroke="#000000"
d="M 690.35778,616.56876 671.15268,622.07946 674.13168,632.46042 693.33678,626.94954 z"
id="path63"
/>
<path stroke-width="0.01in" fill="none" stroke="#000000"
d="M 754.7283,715.21002 742.12038,730.71018 750.49902,737.52498 763.10622,722.02482 z"
id="path64"
/>
<path stroke-width="0.01in" fill="none" stroke="#000000"
d="M 747.62478,804.39426 728.03718,800.45496 725.90814,811.04346 745.49574,814.98186 z"
id="path65"
/>
<path stroke-width="0.01in" fill="none" stroke="#000000"
d="M 631.25568,829.97676 630.74988,810.00306 619.95348,810.27576 620.45928,830.24946 z"
id="path66"
/>
<text x="655.257258947368" y="694.29141"
font-family="Arial" font-size="30" fill="blue" >
15
</text>
</g>
<g>
<path stroke-width="0.01in" fill="none" stroke="#000000"
d="M 911.85786,731.48256 796.71078,720.19116 854.64198,498.31866 945.39978,495.38682 945.3825,495.41706 977.13738,494.3925 992.4345,467.84826 1148.02398,474.51114 1055.26638,565.90236 1013.51466,572.78916 1013.53554,572.71716 1008.5085,573.54516 987.43338,647.05356 z"
id="path67"
/>
<path stroke-width="0.01in" fill="none" stroke="#000000"
d="M 965.64042,612.65826 946.43514,607.15206 943.45866,617.53356 962.66466,623.03976 z"
id="path68"
/>
<path stroke-width="0.01in" fill="none" stroke="#000000"
d="M 904.76946,522.7893 905.41458,542.75922 894.62034,543.1077 893.97522,523.1385 z"
id="path69"
/>
<path stroke-width="0.01in" fill="none" stroke="#000000"
d="M 1050.02442,512.1081 1049.16978,532.06938 1059.95988,532.53162 1060.81398,512.57034 z"
id="path70"
/>
<path stroke-width="0.01in" fill="none" stroke="#000000"
d="M 906.24042,681.91776 891.3537,668.59146 884.15082,676.63926 899.03754,689.96466 z"
id="path71"
/>
<path stroke-width="0.01in" fill="none" stroke="#000000"
d="M 868.91598,568.57446 888.2469,573.62166 890.9757,563.17176 871.64388,558.12366 z"
id="path72"
/>
<text x="937.632081818182" y="588.397516363636"
font-family="Arial" font-size="30" fill="blue" >
16
</text>
</g>
<g>
<path stroke-width="0.01in" fill="none" stroke="#000000"
d="M 1272.46338,603.77706 1157.02398,507.22578 1191.25494,467.84826 z"
id="path73"
/>
<text x="1193.4141" y="539.7837"
font-family="Arial" font-size="30" fill="blue" >
17
</text>
</g>
<g>
<path stroke-width="0.01in" fill="none" stroke="#000000"
d="M 1298.97378,502.81146 1281.46338,476.0793 1353.21282,467.84826 1345.53546,499.69314 z"
id="path74"
/>
<text x="1306.29636" y="500.10804"
font-family="Arial" font-size="30" fill="blue" >
18
</text>
</g>
<g>
<path stroke-width="0.01in" fill="none" stroke="#000000"
d="M 1386.1413,559.9611 1367.6877,540.32634 1362.21282,545.47218 1405.78578,467.84826 1426.24746,489.85218 z"
id="path75"
/>
<text x="1376.115012" y="534.192012"
font-family="Arial" font-size="30" fill="blue" >
19
</text>
</g>
<g>
<path stroke-width="0.01in" fill="none" stroke="#000000"
d="M 1520.1873,793.50426 1489.17474,773.79066 1435.24746,588.83436 1493.86266,467.84826 1519.48674,500.6961 1519.4061,500.70906 1522.96794,505.27746 1601.56386,492.60546 1601.73846,487.43514 1601.65656,487.4481 1601.95266,478.69434 1657.33866,545.91642 1602.67446,753.82686 z"
id="path76"
/>
<path stroke-width="0.01in" fill="none" stroke="#000000"
d="M 1608.96726,519.95106 1593.54666,532.65618 1600.41366,540.9909 1615.83426,528.28578 z"
id="path77"
/>
<path stroke-width="0.01in" fill="none" stroke="#000000"
d="M 1598.38326,692.89236 1579.06026,687.81186 1576.31418,698.25726 1595.63736,703.33686 z"
id="path78"
/>
<path stroke-width="0.01in" fill="none" stroke="#000000"
d="M 1474.7841,570.20166 1492.76466,578.91366 1488.05586,588.63276 1470.0753,579.92166 z"
id="path79"
/>
<path stroke-width="0.01in" fill="none" stroke="#000000"
d="M 1535.51754,764.26776 1526.85666,746.26326 1517.12442,750.94416 1525.7853,768.95046 z"
id="path80"
/>
<path stroke-width="0.01in" fill="none" stroke="#000000"
d="M 1479.12714,636.38136 1498.30794,630.78876 1495.28466,620.42076 1476.10386,626.01246 z"
id="path81"
/>
<text x="1529.38490727273" y="623.877801818182"
font-family="Arial" font-size="30" fill="blue" >
20
</text>
</g>
<g>
<path stroke-width="0.01in" fill="none" stroke="#000000"
d="M 1924.93008,704.4309 1975.0752,635.04018 1973.46024,633.10842 1973.3976,633.19554 1935.17784,587.44116 1935.47952,587.44206 1930.9572,582.02496 1666.33866,581.20416 1683.33156,553.27086 1716.65316,549.59616 1714.20156,527.36706 1915.93224,550.63296 1920.46968,546.71076 1927.548,547.52886 2019.78216,467.84826 2115.47106,513.01116 2103.02316,579.52926 z"
id="path82"
/>
<path stroke-width="0.01in" fill="none" stroke="#000000"
d="M 1996.24248,630.46656 1984.77,614.10906 1975.92768,620.31006 1987.40016,636.6681 z"
id="path83"
/>
<path stroke-width="0.01in" fill="none" stroke="#000000"
d="M 1788.81786,563.63526 1788.87996,543.65526 1778.07996,543.62196 1778.01786,563.60196 z"
id="path84"
/>
<path stroke-width="0.01in" fill="none" stroke="#000000"
d="M 2011.16736,513.39366 2024.22996,528.51366 2032.40196,521.45316 2019.34026,506.33406 z"
id="path85"
/>
<text x="1903.62084206897" y="584.711913103448"
font-family="Arial" font-size="30" fill="blue" >
21
</text>
</g>
<g>
<path stroke-width="0.01in" fill="none" stroke="#000000"
d="M 2327.59368,752.81886 2151.50796,706.2795 2124.47106,569.99556 2232.05436,551.06046 2313.0612,467.84826 z"
id="path86"
/>
<path stroke-width="0.01in" fill="none" stroke="#000000"
d="M 2285.55288,553.75866 2299.86936,567.69606 2292.33528,575.43426 2278.0188,561.49776 z"
id="path87"
/>
<path stroke-width="0.01in" fill="none" stroke="#000000"
d="M 2292.41232,679.51638 2272.45824,680.53446 2273.00832,691.32006 2292.9624,690.3027 z"
id="path88"
/>
<path stroke-width="0.01in" fill="none" stroke="#000000"
d="M 2252.55312,702.07326 2257.65864,682.75638 2247.2172,679.99662 2242.11168,699.3135 z"
id="path89"
/>
<path stroke-width="0.01in" fill="none" stroke="#000000"
d="M 2160.17046,603.89226 2179.76886,600.00426 2177.66736,589.41036 2158.06896,593.29836 z"
id="path90"
/>
<text x="2229.85819714286" y="642.014665714286"
font-family="Arial" font-size="30" fill="blue" >
22
</text>
</g>
<g>
<path stroke-width="0.01in" fill="none" stroke="#000000"
d="M 283.33872,1032.57054 0,935.41968 22.93416,860.70456 268.41132,946.21824 z"
id="path91"
/>
<path stroke-width="0.01in" fill="none" stroke="#000000"
d="M 142.17912,959.48604 148.65912,940.5864 158.87502,944.0892 152.39502,962.98884 z"
id="path92"
/>
<text x="133.59906" y="961.2579375"
font-family="Arial" font-size="30" fill="blue" >
23
</text>
</g>
<g>
<path stroke-width="0.01in" fill="none" stroke="#000000"
d="M 337.42152,951.36966 336.88008,933.14286 292.33872,886.57902 305.90568,860.70456 372.73032,932.6799 z"
id="path93"
/>
<text x="315.555264" y="926.3952"
font-family="Arial" font-size="30" fill="blue" >
24
</text>
</g>
<g>
<path stroke-width="0.01in" fill="none" stroke="#000000"
d="M 449.39952,1210.46184 413.5284,1203.95016 381.73032,911.20356 391.56336,923.25996 391.45536,923.32926 394.27704,926.78886 497.05632,860.70456 499.54104,1150.2288 z"
id="path94"
/>
<path stroke-width="0.01in" fill="none" stroke="#000000"
d="M 452.4156,908.98866 463.22136,925.79436 472.3056,919.95336 461.49984,903.14766 z"
id="path95"
/>
<path stroke-width="0.01in" fill="none" stroke="#000000"
d="M 475.71552,1072.42416 455.73624,1072.59606 455.82912,1083.39516 475.8084,1083.22416 z"
id="path96"
/>
<path stroke-width="0.01in" fill="none" stroke="#000000"
d="M 434.22264,1122.2208 454.086,1120.06296 455.25168,1130.7996 435.38904,1132.95744 z"
id="path97"
/>
<path stroke-width="0.01in" fill="none" stroke="#000000"
d="M 462.348,1161.828 446.99184,1149.04512 440.08272,1157.34528 455.43816,1170.12816 z"
id="path98"
/>
<text x="432.95388" y="1064.4932475"
font-family="Arial" font-size="30" fill="blue" >
25
</text>
</g>
<g>
<path stroke-width="0.01in" fill="none" stroke="#000000"
d="M 508.54104,905.50584 552.14496,860.70456 566.4888,898.8624 z"
id="path99"
/>
<text x="528.8916" y="901.8576"
font-family="Arial" font-size="30" fill="blue" >
26
</text>
</g>
<g>
<path stroke-width="0.01in" fill="none" stroke="#000000"
d="M 623.69712,1073.45196 575.4888,986.87736 612.21672,860.70456 789.71562,914.71536 819.22932,971.37648 z"
id="path100"
/>
<path stroke-width="0.01in" fill="none" stroke="#000000"
d="M 632.87712,1032.37776 650.3328,1022.65776 655.58736,1032.09336 638.13096,1041.81336 z"
id="path101"
/>
<path stroke-width="0.01in" fill="none" stroke="#000000"
d="M 645.8148,909.37944 664.99812,914.96376 668.01762,904.59432 648.83376,899.01 z"
id="path102"
/>
<path stroke-width="0.01in" fill="none" stroke="#000000"
d="M 754.42842,978.0732 745.18182,960.3612 754.75602,955.36296 764.00172,973.07496 z"
id="path103"
/>
<path stroke-width="0.01in" fill="none" stroke="#000000"
d="M 695.10132,919.44144 689.28462,938.556 678.95262,935.41248 684.76932,916.29792 z"
id="path104"
/>
<text x="671.805522857143" y="972.575982857143"
font-family="Arial" font-size="30" fill="blue" >
27
</text>
</g>
<g>
<path stroke-width="0.01in" fill="none" stroke="#000000"
d="M 831.72636,893.89944 828.22932,865.0044 841.30092,860.70456 845.4186,893.3976 z"
id="path105"
/>
<text x="823.1688" y="891.7515"
font-family="Arial" font-size="30" fill="blue" >
28
</text>
</g>
<g>
<path stroke-width="0.01in" fill="none" stroke="#000000"
d="M 1046.26908,1074.03678 854.4186,958.68738 885.0654,860.70456 937.99116,864.73584 1035.91998,1018.92528 1041.17958,1019.90808 1041.08058,1019.75238 1149.30468,1040.00688 z"
id="path106"
/>
<path stroke-width="0.01in" fill="none" stroke="#000000"
d="M 950.97978,984.13848 961.27488,967.01508 970.53048,972.58068 960.23538,989.70318 z"
id="path107"
/>
<path stroke-width="0.01in" fill="none" stroke="#000000"
d="M 913.65012,875.02176 912.13236,894.94416 922.9014,895.76424 924.41844,875.84256 z"
id="path108"
/>
<path stroke-width="0.01in" fill="none" stroke="#000000"
d="M 997.77078,985.46058 980.90478,996.17148 986.69448,1005.28848 1003.56048,994.57668 z"
id="path109"
/>
<text x="960.314121" y="978.163227"
font-family="Arial" font-size="30" fill="blue" >
29
</text>
</g>
<g>
<path stroke-width="0.01in" fill="none" stroke="#000000"
d="M 1176.597,949.10904 1158.30468,929.27592 1178.69652,860.70456 1186.52724,860.71968 1226.49948,926.80704 1224.44316,942.27624 z"
id="path110"
/>
<path stroke-width="0.01in" fill="none" stroke="#000000"
d="M 1190.73348,913.22424 1209.88476,918.91944 1206.80604,929.2716 1187.65476,923.5764 z"
id="path111"
/>
<text x="1181.114712" y="928.888416"
font-family="Arial" font-size="30" fill="blue" >
30
</text>
</g>
<g>
<path stroke-width="0.01in" fill="none" stroke="#000000"
d="M 1314.2331,1002.9672 1299.17142,995.7672 1235.49948,874.36656 1330.44318,860.70456 1386.34902,934.74072 z"
id="path112"
/>
<path stroke-width="0.01in" fill="none" stroke="#000000"
d="M 1318.71222,966.9996 1304.98038,952.48584 1297.13508,959.9076 1310.86638,974.42136 z"
id="path113"
/>
<path stroke-width="0.01in" fill="none" stroke="#000000"
d="M 1329.33654,898.46064 1313.39214,910.50048 1306.88406,901.88208 1322.82846,889.84152 z"
id="path114"
/>
<path stroke-width="0.01in" fill="none" stroke="#000000"
d="M 1292.59008,916.0704 1295.43498,935.84736 1284.74568,937.38528 1281.89988,917.60904 z"
id="path115"
/>
<path stroke-width="0.01in" fill="none" stroke="#000000"
d="M 1259.87508,904.65912 1277.56908,895.37904 1272.55338,885.81528 1254.85938,895.09536 z"
id="path116"
/>
<text x="1285.99328571429" y="937.828868571428"
font-family="Arial" font-size="30" fill="blue" >
31
</text>
</g>
<g>
<path stroke-width="0.01in" fill="none" stroke="#000000"
d="M 1594.56114,956.5083 1432.38312,921.9735 1395.34902,860.70456 1569.49938,862.66656 z"
id="path117"
/>
<path stroke-width="0.01in" fill="none" stroke="#000000"
d="M 1477.83042,878.31054 1477.60542,898.2891 1488.40452,898.41078 1488.62952,878.43222 z"
id="path118"
/>
<path stroke-width="0.01in" fill="none" stroke="#000000"
d="M 1445.31342,890.86878 1462.41252,880.53318 1467.99882,889.77582 1450.90062,900.11142 z"
id="path119"
/>
<path stroke-width="0.01in" fill="none" stroke="#000000"
d="M 1564.88994,911.2095 1545.58674,916.36542 1548.37314,926.79966 1567.67706,921.64446 z"
id="path120"
/>
<path stroke-width="0.01in" fill="none" stroke="#000000"
d="M 1528.47018,920.11014 1532.63178,900.5679 1522.06866,898.31862 1517.90706,917.86086 z"
id="path121"
/>
<text x="1490.424624" y="914.973066"
font-family="Arial" font-size="30" fill="blue" >
32
</text>
</g>
<g>
<path stroke-width="0.01in" fill="none" stroke="#000000"
d="M 1676.15658,1268.97156 1631.3013,1213.38306 1603.56114,930.46176 1633.44834,860.70456 1732.86774,951.0948 1761.47244,1249.55676 z"
id="path122"
/>
<path stroke-width="0.01in" fill="none" stroke="#000000"
d="M 1652.39298,900.23832 1638.95202,915.02136 1630.96146,907.75656 1644.40242,892.9728 z"
id="path123"
/>
<path stroke-width="0.01in" fill="none" stroke="#000000"
d="M 1728.95274,1172.72916 1709.06454,1174.63536 1710.09414,1185.38586 1729.98324,1183.47966 z"
id="path124"
/>
<path stroke-width="0.01in" fill="none" stroke="#000000"
d="M 1645.35858,921.85488 1663.72362,929.72376 1659.47058,939.64968 1641.10482,931.78152 z"
id="path125"
/>
<path stroke-width="0.01in" fill="none" stroke="#000000"
d="M 1658.36826,1139.03856 1678.2525,1137.08916 1679.30658,1147.83696 1659.42162,1149.78636 z"
id="path126"
/>
<path stroke-width="0.01in" fill="none" stroke="#000000"
d="M 1731.61134,1231.10496 1727.17794,1211.62356 1737.70884,1209.22596 1742.14224,1228.70916 z"
id="path127"
/>
<text x="1667.54838461538" y="1089.80061923077"
font-family="Arial" font-size="30" fill="blue" >
33
</text>
</g>
<g>
<path stroke-width="0.01in" fill="none" stroke="#000000"
d="M 1770.47244,948.87504 1785.82824,878.01768 1880.31024,860.70456 1886.92488,900.4068 z"
id="path128"
/>
<path stroke-width="0.01in" fill="none" stroke="#000000"
d="M 1823.19552,905.9976 1815.51816,887.5512 1805.54688,891.70128 1813.22424,910.14696 z"
id="path129"
/>
<text x="1809.127575" y="911.42514"
font-family="Arial" font-size="30" fill="blue" >
34
</text>
</g>
<g>
<path stroke-width="0.01in" fill="none" stroke="#000000"
d="M 2110.76262,993.05658 2069.43102,965.84688 2077.19352,952.48548 1895.92488,940.482 1938.5712,860.70456 2094.26112,875.90592 z"
id="path130"
/>
<path stroke-width="0.01in" fill="none" stroke="#000000"
d="M 1981.26288,901.2708 1982.58336,881.33472 1993.3596,882.04824 1992.03984,901.98432 z"
id="path131"
/>
<path stroke-width="0.01in" fill="none" stroke="#000000"
d="M 2005.6356,897.15456 2003.69448,917.03952 2014.44336,918.08928 2016.3852,898.2036 z"
id="path132"
/>
<path stroke-width="0.01in" fill="none" stroke="#000000"
d="M 2065.05972,914.02488 2045.27592,916.812 2043.76932,906.11712 2063.55402,903.33072 z"
id="path133"
/>
<text x="2008.34487" y="926.04951"
font-family="Arial" font-size="30" fill="blue" >
35
</text>
</g>
<g>
<path stroke-width="0.01in" fill="none" stroke="#000000"
d="M 2121.17886,977.27868 2119.76262,867.27312 2120.1867,867.98376 2124.73206,867.84552 2124.7227,867.82968 2360.63124,860.70456 2402.91594,867.84048 2381.12424,966.82158 2144.32758,939.73896 z"
id="path134"
/>
<text x="2197.56466" y="911.64626"
font-family="Arial" font-size="30" fill="blue" >
36
</text>
</g>
<g>
<path stroke-width="0.01in" fill="none" stroke="#000000"
d="M 0,1298.70468 14.9364,1277.97156 231.19236,1297.86444 z"
id="path135"
/>
<text x="68.54292" y="1305.01356"
font-family="Arial" font-size="30" fill="blue" >
37
</text>
</g>
<g>
<path stroke-width="0.01in" fill="none" stroke="#000000"
d="M 411.81714,1526.27076 248.26788,1435.48344 240.19236,1388.94624 245.781,1397.06496 248.78124,1393.81416 248.77044,1393.79904 355.63914,1277.97156 422.98614,1298.10744 z"
id="path136"
/>
<path stroke-width="0.01in" fill="none" stroke="#000000"
d="M 375.02784,1485.06426 384.72534,1467.59544 394.16814,1472.83686 384.47064,1490.30586 z"
id="path137"
/>
<path stroke-width="0.01in" fill="none" stroke="#000000"
d="M 331.07004,1352.1924 345.75534,1365.74136 338.43114,1373.67864 323.74692,1360.1304 z"
id="path138"
/>
<path stroke-width="0.01in" fill="none" stroke="#000000"
d="M 385.69734,1355.82336 365.74164,1354.84632 366.26904,1344.05928 386.22564,1345.03632 z"
id="path139"
/>
<text x="326.67822" y="1407.438405"
font-family="Arial" font-size="30" fill="blue" >
38
</text>
</g>
<g>
<path stroke-width="0.01in" fill="none" stroke="#000000"
d="M 505.11222,1411.87356 431.98614,1361.04804 490.09662,1277.97156 544.52358,1351.97532 z"
id="path140"
/>
<path stroke-width="0.01in" fill="none" stroke="#000000"
d="M 505.1943,1336.32396 489.0987,1348.16148 495.49734,1356.86196 511.59294,1345.02444 z"
id="path141"
/>
<path stroke-width="0.01in" fill="none" stroke="#000000"
d="M 496.46358,1379.52972 507.86622,1363.12308 516.73446,1369.287 505.33182,1385.69364 z"
id="path142"
/>
<text x="486.45816" y="1370.73948"
font-family="Arial" font-size="30" fill="blue" >
39
</text>
</g>
<g>
<path stroke-width="0.01in" fill="none" stroke="#000000"
d="M 569.4471,1495.86444 553.52358,1467.74988 578.97846,1328.17536 745.78086,1354.14846 786.66786,1277.97156 787.07106,1484.36604 z"
id="path143"
/>
<path stroke-width="0.01in" fill="none" stroke="#000000"
d="M 765.68886,1426.76676 745.70886,1426.80636 745.72956,1437.60636 765.70956,1437.56676 z"
id="path144"
/>
<path stroke-width="0.01in" fill="none" stroke="#000000"
d="M 630.41454,1471.04748 629.35974,1451.09556 618.57486,1451.66508 619.62894,1471.617 z"
id="path145"
/>
<path stroke-width="0.01in" fill="none" stroke="#000000"
d="M 663.73506,1367.55486 660.66102,1387.29726 649.9899,1385.63496 653.06358,1365.89256 z"
id="path146"
/>
<path stroke-width="0.01in" fill="none" stroke="#000000"
d="M 585.01926,1431.95148 604.67454,1435.53636 602.73702,1446.16068 583.08102,1442.5758 z"
id="path147"
/>
<path stroke-width="0.01in" fill="none" stroke="#000000"
d="M 585.16398,1474.07724 602.5491,1464.23052 607.87134,1473.62796 590.48622,1483.47468 z"
id="path148"
/>
<text x="637.704456923077" y="1441.97928692308"
font-family="Arial" font-size="30" fill="blue" >
40
</text>
</g>
<g>
<path stroke-width="0.01in" fill="none" stroke="#000000"
d="M 943.80966,1449.48204 814.96746,1422.64116 796.07106,1330.299 828.63882,1277.97156 954.84906,1351.84572 z"
id="path149"
/>
<path stroke-width="0.01in" fill="none" stroke="#000000"
d="M 852.59466,1322.83404 842.5017,1340.0766 833.1813,1334.62116 843.27426,1317.37788 z"
id="path150"
/>
<path stroke-width="0.01in" fill="none" stroke="#000000"
d="M 905.40936,1394.14212 885.55536,1391.89716 884.34216,1402.62876 904.19526,1404.87372 z"
id="path151"
/>
<path stroke-width="0.01in" fill="none" stroke="#000000"
d="M 922.30416,1435.50864 926.37846,1415.94876 915.80616,1413.74628 911.73096,1433.30544 z"
id="path152"
/>
<path stroke-width="0.01in" fill="none" stroke="#000000"
d="M 829.05642,1381.20012 848.63106,1377.19404 846.46602,1366.61364 826.89138,1370.619 z"
id="path153"
/>
<text x="858.721654285714" y="1391.34889714286"
font-family="Arial" font-size="30" fill="blue" >
41
</text>
</g>
<g>
<path stroke-width="0.01in" fill="none" stroke="#000000"
d="M 1154.29896,1592.47926 963.84906,1512.3357 969.46956,1277.97156 1212.3468,1349.09496 1220.29056,1482.86106 z"
id="path154"
/>
<path stroke-width="0.01in" fill="none" stroke="#000000"
d="M 993.07026,1336.93956 1013.04396,1337.41836 1013.30316,1326.62106 993.32856,1326.14226 z"
id="path155"
/>
<path stroke-width="0.01in" fill="none" stroke="#000000"
d="M 1111.87566,1542.5037 1119.62556,1524.08826 1129.57956,1528.27722 1121.83056,1546.69266 z"
id="path156"
/>
<path stroke-width="0.01in" fill="none" stroke="#000000"
d="M 1075.13046,1332.61416 1069.51536,1351.78866 1079.88066,1354.82436 1085.49486,1335.64896 z"
id="path157"
/>
<path stroke-width="0.01in" fill="none" stroke="#000000"
d="M 1158.67656,1489.4073 1141.55928,1479.10338 1147.12992,1469.85066 1164.2472,1480.1553 z"
id="path158"
/>
<path stroke-width="0.01in" fill="none" stroke="#000000"
d="M 1182.0996,1385.71236 1162.15488,1386.89676 1161.5148,1376.11566 1181.45952,1374.93126 z"
id="path159"
/>
<text x="1091.4910128" y="1433.5189776"
font-family="Arial" font-size="30" fill="blue" >
42
</text>
</g>
<g>
<path stroke-width="0.01in" fill="none" stroke="#000000"
d="M 1406.90376,1322.48196 1229.29056,1277.97156 1436.79312,1286.64036 z"
id="path160"
/>
<text x="1344.16248" y="1309.19796"
font-family="Arial" font-size="30" fill="blue" >
43
</text>
</g>
<g>
<path stroke-width="0.01in" fill="none" stroke="#000000"
d="M 1629.99756,1529.83224 1559.2482,1515.61944 1566.15804,1486.55304 1566.28188,1486.62 1567.39932,1481.92344 1445.79312,1416.32766 1470.01752,1291.53186 1682.7858,1277.97156 1688.13036,1330.72686 z"
id="path161"
/>
<path stroke-width="0.01in" fill="none" stroke="#000000"
d="M 1667.05668,1314.21276 1647.17892,1316.22606 1648.26684,1326.97116 1668.14532,1324.95786 z"
id="path162"
/>
<path stroke-width="0.01in" fill="none" stroke="#000000"
d="M 1529.04222,1312.08876 1530.31302,1332.02916 1519.53462,1332.71586 1518.26382,1312.77636 z"
id="path163"
/>
<path stroke-width="0.01in" fill="none" stroke="#000000"
d="M 1626.81804,1471.8672 1607.6394,1466.26704 1604.6118,1476.63432 1623.79116,1482.23376 z"
id="path164"
/>
<path stroke-width="0.01in" fill="none" stroke="#000000"
d="M 1587.59964,1498.75848 1591.53516,1479.17016 1580.94684,1477.04328 1577.01132,1496.6316 z"
id="path165"
/>
<path stroke-width="0.01in" fill="none" stroke="#000000"
d="M 1490.80212,1414.70676 1500.28722,1397.12166 1490.78232,1391.99436 1481.29632,1409.57946 z"
id="path166"
/>
<path stroke-width="0.01in" fill="none" stroke="#000000"
d="M 1479.04632,1365.94026 1498.66002,1369.74636 1500.71832,1359.14436 1481.10462,1355.33736 z"
id="path167"
/>
<text x="1550.93223818182" y="1416.5685"
font-family="Arial" font-size="30" fill="blue" >
44
</text>
</g>
<g>
<path stroke-width="0.01in" fill="none" stroke="#000000"
d="M 1722.70476,1436.37336 1697.13036,1283.65596 1837.85616,1277.97156 1850.97816,1339.18056 z"
id="path168"
/>
<path stroke-width="0.01in" fill="none" stroke="#000000"
d="M 1741.46436,1346.76072 1761.17004,1343.46006 1762.9542,1354.11192 1743.24852,1357.4124 z"
id="path169"
/>
<text x="1751.18832" y="1355.8658175"
font-family="Arial" font-size="30" fill="blue" >
45
</text>
</g>
<g>
<path stroke-width="0.01in" fill="none" stroke="#000000"
d="M 2033.83116,1423.75788 1859.97816,1346.3262 1903.03848,1282.887 2082.38076,1277.97156 2096.49816,1314.64404 z"
id="path170"
/>
<path stroke-width="0.01in" fill="none" stroke="#000000"
d="M 1954.79316,1304.14788 1955.34126,1324.11996 1944.54504,1324.41588 1943.99784,1304.4438 z"
id="path171"
/>
<path stroke-width="0.01in" fill="none" stroke="#000000"
d="M 2070.78156,1306.33524 2052.13446,1313.51292 2056.01436,1323.5922 2074.66056,1316.41452 z"
id="path172"
/>
<path stroke-width="0.01in" fill="none" stroke="#000000"
d="M 1904.86944,1323.93708 1921.40136,1335.15828 1915.33536,1344.0942 1898.80416,1332.873 z"
id="path173"
/>
<path stroke-width="0.01in" fill="none" stroke="#000000"
d="M 1998.97956,1371.7926 2007.10836,1353.54132 2016.97326,1357.93548 2008.84446,1376.18676 z"
id="path174"
/>
<path stroke-width="0.01in" fill="none" stroke="#000000"
d="M 2040.86016,1358.94492 2023.53426,1348.99452 2028.91356,1339.62948 2046.23856,1349.57988 z"
id="path175"
/>
<text x="1980.0942984" y="1347.709464"
font-family="Arial" font-size="30" fill="blue" >
46
</text>
</g>
<g>
<path stroke-width="0.01in" fill="none" stroke="#000000"
d="M 2187.50544,1330.37172 2105.49816,1277.97156 2266.6248,1279.19844 2285.48304,1307.08116 z"
id="path176"
/>
<text x="2197.77786" y="1312.15572"
font-family="Arial" font-size="30" fill="blue" >
47
</text>
</g>
<g>
<path stroke-width="0.01in" fill="none" stroke="#000000"
d="M 0,1647.84726 7.0992,1606.88286 68.2884,1601.47926 76.29192,1631.4903 z"
id="path177"
/>
<text x="24.41988" y="1635.42492"
font-family="Arial" font-size="30" fill="blue" >
48
</text>
</g>
<g>
<path stroke-width="0.01in" fill="none" stroke="#000000"
d="M 89.66664,1602.50238 85.29192,1606.6647 88.54992,1601.47926 z"
id="path178"
/>
<text x="74.33616" y="1617.04878"
font-family="Arial" font-size="30" fill="blue" >
49
</text>
</g>
<g>
<path stroke-width="0.01in" fill="none" stroke="#000000"
d="M 163.46664,1612.27926 141.86664,1612.27926 141.86664,1601.47926 120.26664,1601.47926 120.26664,1612.27926 98.66664,1612.27926 98.66664,1633.87926 142.38144,1677.24864 163.9807677,1677.07719 163.8093915,1655.47791 174.60909,1655.39223 174.43764,1633.79286 163.6380162,1633.87854 163.46664,1612.27926 z"
id="path179"
/>
<text x="122.599247528571" y="1644.29296071429"
font-family="Arial" font-size="20" fill="blue" >
2 0
</text>
</g>
<g>
<path stroke-width="0.01in" fill="none" stroke="#000000"
d="M 248.40909,1654.68807 226.80909,1654.68807 226.80909,1643.88807 205.20909,1643.88807 205.20909,1654.68807 183.60909,1654.68807 183.60909,1676.28807 259.70067,1676.28807 303.1299,1613.80737 285.39369,1601.47926 273.06549,1619.21547 264.19734,1613.05137 251.86914,1630.78767 260.73729,1636.95177 248.40909,1654.68807 z"
id="path180"
/>
<text x="219.244416" y="1655.439036"
font-family="Arial" font-size="20" fill="blue" >
25 0
</text>
</g>
<g>
<path stroke-width="0.01in" fill="none" stroke="#000000"
d="M 376.9299,1646.27811 355.3299,1646.27811 355.3299,1635.47811 333.7299,1635.47811 333.7299,1646.27811 312.1299,1646.27811 312.1299,1667.87811 385.599105,1667.87811 438.68277,1617.08589 423.74979,1601.47926 408.14316,1616.41215 400.67667,1608.60888 385.070049,1623.54186 392.53653,1631.34513 376.9299,1646.27811 z"
id="path181"
/>
<text x="350.2131516" y="1649.271744"
font-family="Arial" font-size="20" fill="blue" >
15 0
</text>
</g>
<g>
<path stroke-width="0.01in" fill="none" stroke="#000000"
d="M 512.48277,1612.27926 490.88277,1612.27926 490.88277,1601.47926 469.28277,1601.47926 469.28277,1612.27926 447.68277,1612.27926 447.68277,1633.87926 557.30853,1663.81812 568.28763,1645.21647 549.68598,1634.23737 555.17553,1624.93659 536.57388,1613.957526 531.08442,1623.25836 512.48277,1612.27926 z"
id="path182"
/>
<text x="487.412723571429" y="1635.189894"
font-family="Arial" font-size="20" fill="blue" >
25 15
</text>
</g>
<g>
<path stroke-width="0.01in" fill="none" stroke="#000000"
d="M 642.08763,1612.27926 620.48763,1612.27926 620.48763,1601.47926 598.88763,1601.47926 598.88763,1612.27926 577.28763,1612.27926 577.28763,1633.87926 655.01667,1679.34969 673.84494,1668.76389 663.25914,1649.93571 672.67323,1644.64281 662.08752,1625.81463 652.67343,1631.10744 642.08763,1612.27926 z"
id="path183"
/>
<text x="610.146855" y="1641.91773214286"
font-family="Arial" font-size="20" fill="blue" >
12 0
</text>
</g>
<g>
<path stroke-width="0.01in" fill="none" stroke="#000000"
d="M 747.64494,1612.27926 726.04494,1612.27926 726.04494,1601.47926 704.44494,1601.47926 704.44494,1612.27926 682.84494,1612.27926 682.84494,1633.87926 776.95596,1673.97579 792.53388,1659.01284 777.57084,1643.43501 785.3598,1635.95349 770.39685,1620.375633 762.60789,1627.85709 747.64494,1612.27926 z"
id="path184"
/>
<text x="719.456052857143" y="1639.1317095"
font-family="Arial" font-size="20" fill="blue" >
34 0
</text>
</g>
<g>
<path stroke-width="0.01in" fill="none" stroke="#000000"
d="M 866.33388,1612.27926 844.73388,1612.27926 844.73388,1601.47926 823.13388,1601.47926 823.13388,1612.27926 801.53388,1612.27926 801.53388,1633.87926 873.904095,1680.16365 893.51244,1671.10416 884.45286,1651.49586 894.25701,1646.96607 885.19752,1627.35777 875.39337,1631.88756 866.33388,1612.27926 z"
id="path185"
/>
<text x="833.084881071428" y="1642.58636785714"
font-family="Arial" font-size="20" fill="blue" >
21 0
</text>
</g>
<g>
<path stroke-width="0.01in" fill="none" stroke="#000000"
d="M 968.05701,1612.27926 946.45701,1612.27926 946.45701,1601.47926 924.85701,1601.47926 924.85701,1612.27926 903.25701,1612.27926 903.25701,1633.87926 946.79766,1677.19185 968.3973576,1677.07836 968.283909,1655.47863 979.08372,1655.42193 978.97032,1633.8222 968.1704595,1633.87899 968.05701,1612.27926 z"
id="path186"
/>
<text x="927.139964721429" y="1644.29328857143"
font-family="Arial" font-size="20" fill="blue" >
21 23
</text>
</g>
<g>
<path stroke-width="0.01in" fill="none" stroke="#000000"
d="M 1052.88372,1653.90624 1031.28372,1653.90624 1031.28372,1643.10624 1009.68372,1643.10624 1009.68372,1653.90624 988.08372,1653.90624 988.08372,1675.50624 1063.89045,1675.50624 1108.44423,1614.17421 1090.96857,1601.47926 1078.27362,1618.95492 1069.53579,1612.60749 1056.840849,1630.08315 1065.57867,1636.43058 1052.88372,1653.90624 z"
id="path187"
/>
<text x="1023.9934626" y="1654.865718"
font-family="Arial" font-size="20" fill="blue" >
2 33
</text>
</g>
<g>
<path stroke-width="0.01in" fill="none" stroke="#000000"
d="M 1182.24423,1612.27926 1160.64423,1612.27926 1160.64423,1601.47926 1139.04423,1601.47926 1139.04423,1612.27926 1117.44423,1612.27926 1117.44423,1633.87926 1203.08445,1677.32757 1220.51493,1664.5707 1207.75797,1647.14022 1216.47321,1640.76183 1203.71634,1623.33126 1195.0011,1629.70974 1182.24423,1612.27926 z"
id="path188"
/>
<text x="1152.16441714286" y="1640.71967142857"
font-family="Arial" font-size="20" fill="blue" >
33 25
</text>
</g>
<g>
<path stroke-width="0.01in" fill="none" stroke="#000000"
d="M 1294.31493,1612.27926 1272.71493,1612.27926 1272.71493,1601.47926 1251.11493,1601.47926 1251.11493,1612.27926 1229.51493,1612.27926 1229.51493,1633.87926 1309.8159,1678.80231 1328.2227,1667.49975 1316.92014,1649.09295 1326.12354,1643.44158 1314.82098,1625.03478 1305.61749,1630.68606 1294.31493,1612.27926 z"
id="path189"
/>
<text x="1262.988585" y="1641.55653642857"
font-family="Arial" font-size="20" fill="blue" >
16 33
</text>
</g>
<g>
<path stroke-width="0.01in" fill="none" stroke="#000000"
d="M 1402.0227,1612.27926 1380.4227,1612.27926 1380.4227,1601.47926 1358.8227,1601.47926 1358.8227,1612.27926 1337.2227,1612.27926 1337.2227,1633.87926 1349.69454,1656.18099 1368.09792,1667.48931 1379.40615,1649.08593 1388.60784,1654.74009 1399.916097,1636.33671 1390.71447,1630.68264 1402.0227,1612.27926 z"
id="path190"
/>
<text x="1351.3156155" y="1641.55355357143"
font-family="Arial" font-size="20" fill="blue" >
9 3
</text>
</g>
<g>
<path stroke-width="0.01in" fill="none" stroke="#000000"
d="M 1475.8227,1612.27926 1454.2227,1612.27926 1454.2227,1601.47926 1432.6227,1601.47926 1432.6227,1612.27926 1411.0227,1612.27926 1411.0227,1633.87926 1487.16342,1679.63643 1506.23649,1669.49847 1496.09853,1650.4254 1505.63511,1645.35642 1495.49715,1626.28335 1485.96066,1631.35233 1475.8227,1612.27926 z"
id="path191"
/>
<text x="1443.49806857143" y="1642.12760571429"
font-family="Arial" font-size="20" fill="blue" >
13 9
</text>
</g>
<g>
<path stroke-width="0.01in" fill="none" stroke="#000000"
d="M 1580.03649,1612.27926 1558.43649,1612.27926 1558.43649,1601.47926 1536.83649,1601.47926 1536.83649,1612.27926 1515.23649,1612.27926 1515.23649,1633.87926 1569.39192,1679.74992 1590.69762,1676.19627 1587.143889,1654.89057 1597.79673,1653.1137 1594.24299,1631.80809 1583.590194,1633.58496 1580.03649,1612.27926 z"
id="path192"
/>
<text x="1542.06823307143" y="1644.04125642857"
font-family="Arial" font-size="20" fill="blue" >
40 3
</text>
</g>
<g>
<path stroke-width="0.01in" fill="none" stroke="#000000"
d="M 1671.59673,1612.27926 1649.99673,1612.27926 1649.99673,1601.47926 1628.39673,1601.47926 1628.39673,1612.27926 1606.79673,1612.27926 1606.79673,1633.87926 1661.10327,1679.77359 1682.40087,1676.17224 1678.799511,1654.87455 1689.44832,1653.07383 1685.84697,1631.77623 1675.198125,1633.57695 1671.59673,1612.27926 z"
id="path193"
/>
<text x="1633.66935042857" y="1644.03439071429"
font-family="Arial" font-size="20" fill="blue" >
44 3
</text>
</g>
<g>
<path stroke-width="0.01in" fill="none" stroke="#000000"
d="M 1763.24832,1612.27926 1741.64832,1612.27926 1741.64832,1601.47926 1720.04832,1601.47926 1720.04832,1612.27926 1698.44832,1612.27926 1698.44832,1633.87926 1808.51985,1663.42698 1819.33704,1644.73074 1800.6408,1633.91355 1806.04935,1624.56543 1787.35311,1613.748303 1781.94456,1623.09645 1763.24832,1612.27926 z"
id="path194"
/>
<text x="1738.25937642857" y="1635.0511095"
font-family="Arial" font-size="20" fill="blue" >
40 44
</text>
</g>
<g>
<path stroke-width="0.01in" fill="none" stroke="#000000"
d="M 1893.13704,1612.27926 1871.53704,1612.27926 1871.53704,1601.47926 1849.93704,1601.47926 1849.93704,1612.27926 1828.33704,1612.27926 1828.33704,1633.87926 1942.6005,1659.38517 1951.7859,1639.83555 1932.23628,1630.65015 1936.82898,1620.875295 1917.27936,1611.6898707 1912.68666,1621.46466 1893.13704,1612.27926 z"
id="path195"
/>
<text x="1868.87957142857" y="1633.65248397857"
font-family="Arial" font-size="20" fill="blue" >
5 3
</text>
</g>
<g>
<path stroke-width="0.01in" fill="none" stroke="#000000"
d="M 2025.5859,1612.27926 2003.9859,1612.27926 2003.9859,1601.47926 1982.3859,1601.47926 1982.3859,1612.27926 1960.7859,1612.27926 1960.7859,1633.87926 2031.34662,1680.34113 2051.1891,1671.8067 2042.65467,1651.96422 2052.57591,1647.69705 2044.04157,1627.85457 2034.120303,1632.12174 2025.5859,1612.27926 z"
id="path196"
/>
<text x="1991.88681235714" y="1642.78710642857"
font-family="Arial" font-size="20" fill="blue" >
44 5
</text>
</g>
<g>
<path stroke-width="0.01in" fill="none" stroke="#000000"
d="M 2126.37591,1612.27926 2104.77591,1612.27926 2104.77591,1601.47926 2083.17591,1601.47926 2083.17591,1612.27926 2061.57591,1612.27926 2061.57591,1633.87926 2127.569508,1680.57405 2147.93856,1673.38647 2140.75098,1653.0174 2150.93556,1649.42361 2143.74798,1629.05454 2133.563463,1632.64833 2126.37591,1612.27926 z"
id="path197"
/>
<text x="2091.52238078571" y="1643.23846285714"
font-family="Arial" font-size="20" fill="blue" >
8 3
</text>
</g>
<g>
<path stroke-width="0.01in" fill="none" stroke="#000000"
d="M 2224.73556,1612.27926 2203.13556,1612.27926 2203.13556,1601.47926 2181.53556,1601.47926 2181.53556,1612.27926 2159.93556,1612.27926 2159.93556,1633.87926 2243.91708,1677.83589 2261.66589,1665.52578 2249.35578,1647.77688 2258.23023,1641.62187 2245.92012,1623.87306 2237.04567,1630.02807 2224.73556,1612.27926 z"
id="path198"
/>
<text x="2194.27280357143" y="1640.992545"
font-family="Arial" font-size="20" fill="blue" >
5 8
</text>
</g>
<g>
<path stroke-width="0.01in" fill="none" stroke="#000000"
d="M 64.8,1700.37405 43.2,1700.37405 43.2,1689.57405 21.6,1689.57405 21.6,1700.37405 0,1700.37405 0,1721.97405 54.54279,1767.90474 75.8277,1764.22878 72.151776,1742.94387 82.79424,1741.10598 79.11837,1719.82107 68.475888,1721.65896 64.8,1700.37405 z"
id="path199"
/>
<text x="26.9364831428571" y="1732.11827142857"
font-family="Arial" font-size="20" fill="blue" >
42 3
</text>
</g>
<g>
<path stroke-width="0.01in" fill="none" stroke="#000000"
d="M 156.59424,1700.37405 134.99424,1700.37405 134.99424,1689.57405 113.39424,1689.57405 113.39424,1700.37405 91.79424,1700.37405 91.79424,1721.97405 201.37419,1751.95269 212.36976,1733.36085 193.77792,1722.36519 199.27575,1713.06927 180.68391,1702.073709 175.18608,1711.36962 156.59424,1700.37405 z"
id="path200"
/>
<text x="131.515823571429" y="1723.29883778571"
font-family="Arial" font-size="20" fill="blue" >
8 42
</text>
</g>
<g>
<path stroke-width="0.01in" fill="none" stroke="#000000"
d="M 286.16976,1700.37405 264.56976,1700.37405 264.56976,1689.57405 242.96976,1689.57405 242.96976,1700.37405 221.36976,1700.37405 221.36976,1721.97405 282.950073,1768.60332 303.74082,1762.7463 297.8838,1741.95558 308.27916,1739.02707 302.42214,1718.23626 292.02678,1721.16477 286.16976,1700.37405 z"
id="path201"
/>
<text x="250.175775214286" y="1731.69469285714"
font-family="Arial" font-size="20" fill="blue" >
42 29
</text>
</g>
<g>
<path stroke-width="0.01in" fill="none" stroke="#000000"
d="M 382.07916,1726.67187 360.47916,1726.67187 360.47916,1715.87187 338.87916,1715.87187 338.87916,1726.67187 317.27916,1726.67187 317.27916,1748.27187 388.873989,1748.27187 447.57504,1707.28398 435.20913,1689.57405 417.49911,1701.93996 411.31611,1693.08495 393.60618,1705.45095 399.78918,1714.30596 382.07916,1726.67187 z"
id="path202"
/>
<text x="356.9201346" y="1731.719112"
font-family="Arial" font-size="20" fill="blue" >
29 6
</text>
</g>
<g>
<path stroke-width="0.01in" fill="none" stroke="#000000"
d="M 521.37504,1700.37405 499.77504,1700.37405 499.77504,1689.57405 478.17504,1689.57405 478.17504,1700.37405 456.57504,1700.37405 456.57504,1721.97405 471.77838,1747.33974 490.82778,1757.52216 501.0102,1738.47276 510.5349,1743.56397 520.7172894,1724.51466 511.19262,1719.42345 521.37504,1700.37405 z"
id="path203"
/>
<text x="471.632963528571" y="1730.20208142857"
font-family="Arial" font-size="20" fill="blue" >
39 3
</text>
</g>
<g>
<path stroke-width="0.01in" fill="none" stroke="#000000"
d="M 595.17504,1738.75329 573.57504,1738.75329 573.57504,1727.95329 551.97504,1727.95329 551.97504,1738.75329 530.37504,1738.75329 530.37504,1760.35329 605.10321,1760.35329 653.76342,1703.63916 637.37037,1689.57405 623.30526,1705.96719 615.10869,1698.93459 601.043616,1715.32764 609.24015,1722.36024 595.17504,1738.75329 z"
id="path204"
/>
<text x="567.3090024" y="1740.578832"
font-family="Arial" font-size="20" fill="blue" >
4 9
</text>
</g>
<g>
<path stroke-width="0.01in" fill="none" stroke="#000000"
d="M 727.56342,1700.37405 705.96342,1700.37405 705.96342,1689.57405 684.36342,1689.57405 684.36342,1700.37405 662.76342,1700.37405 662.76342,1721.97405 738.16029,1767.85227 757.34406,1757.92536 747.41715,1738.74159 757.00908,1733.77818 747.08217,1714.59441 737.49033,1719.55782 727.56342,1700.37405 z"
id="path205"
/>
<text x="695.057888571429" y="1730.31728785714"
font-family="Arial" font-size="20" fill="blue" >
7 4
</text>
</g>
<g>
<path stroke-width="0.01in" fill="none" stroke="#000000"
d="M 831.14406,1700.37405 809.54406,1700.37405 809.54406,1689.57405 787.94406,1689.57405 787.94406,1700.37405 766.34406,1700.37405 766.34406,1721.97405 867.06558,1758.47094 880.90245,1741.88484 864.31635,1728.04788 871.23474,1719.75483 854.64864,1705.917897 847.73016,1714.21101 831.14406,1700.37405 z"
id="path206"
/>
<text x="804.346457142857" y="1725.73427121429"
font-family="Arial" font-size="20" fill="blue" >
31 4
</text>
</g>
<g>
<path stroke-width="0.01in" fill="none" stroke="#000000"
d="M 954.70245,1700.37405 933.10245,1700.37405 933.10245,1689.57405 911.50245,1689.57405 911.50245,1700.37405 889.90245,1700.37405 889.90245,1721.97405 969.66819,1767.01959 988.16526,1755.86535 977.01102,1737.36819 986.25951,1731.79107 975.10527,1713.294 965.85669,1718.87112 954.70245,1700.37405 z"
id="path207"
/>
<text x="923.248967142857" y="1729.72869428571"
font-family="Arial" font-size="20" fill="blue" >
7 31
</text>
</g>
<g>
<path stroke-width="0.01in" fill="none" stroke="#000000"
d="M 1061.96526,1700.37405 1040.36526,1700.37405 1040.36526,1689.57405 1018.76526,1689.57405 1018.76526,1700.37405 997.16526,1700.37405 997.16526,1721.97405 1090.7928,1762.29801 1106.48727,1747.45728 1091.64654,1731.7629 1099.49382,1724.34258 1084.65309,1708.648146 1076.8059,1716.06843 1061.96526,1700.37405 z"
id="path208"
/>
<text x="1033.67153571429" y="1727.32641042857"
font-family="Arial" font-size="20" fill="blue" >
15 4
</text>
</g>
<g>
<path stroke-width="0.01in" fill="none" stroke="#000000"
d="M 1180.28727,1721.48688 1158.68727,1721.48688 1158.68727,1710.68688 1137.08727,1710.68688 1137.08727,1721.48688 1115.48727,1721.48688 1115.48727,1743.08688 1185.974847,1743.08688 1247.32179,1708.37298 1236.68415,1689.57405 1217.88522,1700.21169 1212.5664,1690.81218 1193.76747,1701.44982 1199.0862,1710.84924 1180.28727,1721.48688 z"
id="path209"
/>
<text x="1155.9256158" y="1727.916792"
font-family="Arial" font-size="20" fill="blue" >
32 4
</text>
</g>
<g>
<path stroke-width="0.01in" fill="none" stroke="#000000"
d="M 1321.12179,1700.37405 1299.52179,1700.37405 1299.52179,1689.57405 1277.92179,1689.57405 1277.92179,1700.37405 1256.32179,1700.37405 1256.32179,1721.97405 1337.58738,1766.66499 1355.82813,1755.09621 1344.25935,1736.85546 1353.37968,1731.07107 1341.8109,1712.83041 1332.69057,1718.6148 1321.12179,1700.37405 z"
id="path210"
/>
<text x="1290.023595" y="1729.50895285714"
font-family="Arial" font-size="20" fill="blue" >
15 32
</text>
</g>
<g>
<path stroke-width="0.01in" fill="none" stroke="#000000"
d="M 1429.62813,1740.1743 1408.02813,1740.1743 1408.02813,1729.3743 1386.42813,1729.3743 1386.42813,1740.1743 1364.82813,1740.1743 1364.82813,1761.7743 1440.00963,1761.7743 1486.97514,1703.06748 1470.10842,1689.57405 1456.61499,1706.44077 1448.18163,1699.6941 1434.688182,1716.56082 1443.12156,1723.30758 1429.62813,1740.1743 z"
id="path211"
/>
<text x="1401.3349728" y="1741.6209"
font-family="Arial" font-size="20" fill="blue" >
32 9
</text>
</g>
<g>
<path stroke-width="0.01in" fill="none" stroke="#000000"
d="M 1560.77514,1700.37405 1539.17514,1700.37405 1539.17514,1689.57405 1517.57514,1689.57405 1517.57514,1700.37405 1495.97514,1700.37405 1495.97514,1721.97405 1580.86368,1765.65843 1598.44014,1753.10343 1585.88514,1735.52697 1594.67337,1729.24947 1582.11837,1711.67301 1573.33014,1717.95051 1560.77514,1700.37405 z"
id="path212"
/>
<text x="1530.52228285714" y="1728.93958714286"
font-family="Arial" font-size="20" fill="blue" >
44 30
</text>
</g>
<g>
<path stroke-width="0.01in" fill="none" stroke="#000000"
d="M 1672.24014,1736.5041 1650.64014,1736.5041 1650.64014,1725.7041 1629.04014,1725.7041 1629.04014,1736.5041 1607.44014,1736.5041 1607.44014,1758.1041 1681.49898,1758.1041 1732.56696,1704.46851 1716.92361,1689.57405 1702.02906,1705.2174 1694.20743,1697.77017 1679.312943,1713.41352 1687.1346,1720.86075 1672.24014,1736.5041 z"
id="path213"
/>
<text x="1644.9929802" y="1738.92942"
font-family="Arial" font-size="20" fill="blue" >
29 38
</text>
</g>
<g>
<path stroke-width="0.01in" fill="none" stroke="#000000"
d="M 1806.36696,1700.37405 1784.76696,1700.37405 1784.76696,1689.57405 1763.16696,1689.57405 1763.16696,1700.37405 1741.56696,1700.37405 1741.56696,1721.97405 1825.70184,1765.88559 1843.42185,1753.53399 1831.07025,1735.81398 1839.93021,1729.63818 1827.57861,1711.91817 1818.71856,1718.09406 1806.36696,1700.37405 z"
id="path214"
/>
<text x="1775.93978571429" y="1729.06259785714"
font-family="Arial" font-size="20" fill="blue" >
7 41
</text>
</g>
<g>
<path stroke-width="0.01in" fill="none" stroke="#000000"
d="M 1917.22185,1700.37405 1895.62185,1700.37405 1895.62185,1689.57405 1874.02185,1689.57405 1874.02185,1700.37405 1852.42185,1700.37405 1852.42185,1721.97405 1920.491865,1768.60089 1940.63292,1760.79726 1932.8292,1740.65616 1942.89975,1736.7543 1935.09603,1716.61329 1925.025543,1720.51515 1917.22185,1700.37405 z"
id="path215"
/>
<text x="1882.89643628571" y="1731.13781785714"
font-family="Arial" font-size="20" fill="blue" >
41 31
</text>
</g>
<g>
<path stroke-width="0.01in" fill="none" stroke="#000000"
d="M 2016.69975,1700.37405 1995.09975,1700.37405 1995.09975,1689.57405 1973.49975,1689.57405 1973.49975,1700.37405 1951.89975,1700.37405 1951.89975,1721.97405 2023.829649,1768.30614 2043.49626,1759.37391 2034.56412,1739.70729 2044.39743,1735.24122 2035.4652,1715.5746 2025.631926,1720.04067 2016.69975,1700.37405 z"
id="path216"
/>
<text x="1983.34161321429" y="1730.73115928571"
font-family="Arial" font-size="20" fill="blue" >
7 38
</text>
</g>
<g>
<path stroke-width="0.01in" fill="none" stroke="#000000"
d="M 2118.19743,1751.77962 2096.59743,1751.77962 2096.59743,1740.97962 2074.99743,1740.97962 2074.99743,1751.77962 2053.39743,1751.77962 2053.39743,1773.37962 2134.39518,1773.37962 2157.08481,1695.62475 2136.34962,1689.57405 2130.29892,1710.30924 2119.931307,1707.28389 2113.880571,1728.01908 2124.248166,1731.04443 2118.19743,1751.77962 z"
id="path217"
/>
<text x="2084.3378676" y="1750.131468"
font-family="Arial" font-size="20" fill="blue" >
7 39
</text>
</g>
<g>
<path stroke-width="0.01in" fill="none" stroke="#000000"
d="M 64.8,1793.17962 43.2,1793.17962 43.2,1782.37962 21.6,1782.37962 21.6,1793.17962 0,1793.17962 0,1814.77962 93.97773,1854.93933 109.58787,1840.01004 94.65858,1824.3999 102.46365,1816.9353 87.53436,1801.325124 79.72929,1808.78976 64.8,1793.17962 z"
id="path218"
/>
<text x="36.5822485714286" y="1820.05974385714"
font-family="Arial" font-size="20" fill="blue" >
8 27
</text>
</g>
<g>
<path stroke-width="0.01in" fill="none" stroke="#000000"
d="M 183.38787,1793.17962 161.78787,1793.17962 161.78787,1782.37962 140.18787,1782.37962 140.18787,1793.17962 118.58787,1793.17962 118.58787,1814.77962 218.07189,1852.02369 232.2567,1835.73405 215.96706,1821.54924 223.05951,1813.40442 206.76987,1799.219637 199.67751,1807.36443 183.38787,1793.17962 z"
id="path219"
/>
<text x="156.336107142857" y="1818.8380305"
font-family="Arial" font-size="20" fill="blue" >
27 42
</text>
</g>
<g>
<path stroke-width="0.01in" fill="none" stroke="#000000"
d="M 306.0567,1793.17962 284.4567,1793.17962 284.4567,1782.37962 262.8567,1782.37962 262.8567,1793.17962 241.2567,1793.17962 241.2567,1814.77962 312.940089,1861.13709 332.63901,1852.27632 323.77824,1832.57739 333.62766,1828.14705 324.76689,1808.44812 314.917461,1812.87855 306.0567,1793.17962 z"
id="path220"
/>
<text x="272.637353571429" y="1823.56439142857"
font-family="Arial" font-size="20" fill="blue" >
20 8
</text>
</g>
<g>
<path stroke-width="0.01in" fill="none" stroke="#000000"
d="M 407.42766,1793.17962 385.82766,1793.17962 385.82766,1782.37962 364.22766,1782.37962 364.22766,1793.17962 342.62766,1793.17962 342.62766,1814.77962 427.22172,1858.55391 444.85461,1846.07829 432.37899,1828.4454 441.19539,1822.20759 428.71977,1804.5747 419.90328,1810.81251 407.42766,1793.17962 z"
id="path221"
/>
<text x="377.106788571429" y="1821.79352571429"
font-family="Arial" font-size="20" fill="blue" >
20 27
</text>
</g>
<g>
<path stroke-width="0.01in" fill="none" stroke="#000000"
d="M 518.65461,1793.17962 497.05461,1793.17962 497.05461,1782.37962 475.45461,1782.37962 475.45461,1793.17962 453.85461,1793.17962 453.85461,1814.77962 545.59476,1855.94769 561.73113,1841.58882 547.37235,1825.45245 555.44049,1818.27297 541.08162,1802.136591 533.01348,1809.31599 518.65461,1793.17962 z"
id="path222"
/>
<text x="489.947907857143" y="1820.51081935714"
font-family="Arial" font-size="20" fill="blue" >
32 40
</text>
</g>
<g>
<path stroke-width="0.01in" fill="none" stroke="#000000"
d="M 635.53113,1793.17962 613.93113,1793.17962 613.93113,1782.37962 592.33113,1782.37962 592.33113,1793.17962 570.73113,1793.17962 570.73113,1814.77962 652.35348,1859.38092 670.53159,1847.71404 658.8648,1829.53593 667.9539,1823.70249 656.28702,1805.52438 647.19792,1811.35773 635.53113,1793.17962 z"
id="path223"
/>
<text x="604.516982142857" y="1822.26088928571"
font-family="Arial" font-size="20" fill="blue" >
14 10
</text>
</g>
<g>
<path stroke-width="0.01in" fill="none" stroke="#000000"
d="M 744.33159,1793.17962 722.73159,1793.17962 722.73159,1782.37962 701.13159,1782.37962 701.13159,1793.17962 679.53159,1793.17962 679.53159,1814.77962 758.38842,1860.02271 777.0357,1849.12137 766.13436,1830.47409 775.458,1825.02342 764.55657,1806.37623 755.23293,1811.8269 744.33159,1793.17962 z"
id="path224"
/>
<text x="712.661335714286" y="1822.66297714286"
font-family="Arial" font-size="20" fill="blue" >
44 20
</text>
</g>
<g>
<path stroke-width="0.01in" fill="none" stroke="#000000"
d="M 850.8357,1845.55602 829.2357,1845.55602 829.2357,1834.75602 807.6357,1834.75602 807.6357,1845.55602 786.0357,1845.55602 786.0357,1867.15602 868.06251,1867.15602 886.30902,1787.18445 865.25019,1782.37962 860.44536,1803.43836 849.915954,1801.03599 845.111124,1822.09482 855.64053,1824.49719 850.8357,1845.55602 z"
id="path225"
/>
<text x="816.0480192" y="1843.648974"
font-family="Arial" font-size="20" fill="blue" >
31 14
</text>
</g>
<g>
<path stroke-width="0.01in" fill="none" stroke="#000000"
d="M 960.10902,1842.2271 938.50902,1842.2271 938.50902,1831.4271 916.90902,1831.4271 916.90902,1842.2271 895.30902,1842.2271 895.30902,1863.8271 974.52918,1863.8271 1004.904,1790.66151 984.95478,1782.37962 976.67289,1802.32875 966.698298,1798.18776 958.416372,1818.13698 968.390955,1822.27797 960.10902,1842.2271 z"
id="path226"
/>
<text x="927.915909" y="1841.207766"
font-family="Arial" font-size="20" fill="blue" >
41 14
</text>
</g>
<g>
<path stroke-width="0.01in" fill="none" stroke="#000000"
d="M 1078.704,1793.17962 1057.104,1793.17962 1057.104,1782.37962 1035.504,1782.37962 1035.504,1793.17962 1013.904,1793.17962 1013.904,1814.77962 1106.82135,1855.4292 1122.68448,1840.76901 1108.02438,1824.90588 1115.9559,1817.57583 1101.29571,1801.712673 1093.36419,1809.04275 1078.704,1793.17962 z"
id="path227"
/>
<text x="1050.25557214286" y="1820.27659307143"
font-family="Arial" font-size="20" fill="blue" >
41 16
</text>
</g>
<g>
<path stroke-width="0.01in" fill="none" stroke="#000000"
d="M 1196.48448,1793.17962 1174.88448,1793.17962 1174.88448,1782.37962 1153.28448,1782.37962 1153.28448,1793.17962 1131.68448,1793.17962 1131.68448,1814.77962 1238.26293,1847.21814 1250.29665,1829.28069 1232.35929,1817.24697 1238.37615,1808.27829 1220.4387,1796.244624 1214.42184,1805.21334 1196.48448,1793.17962 z"
id="path228"
/>
<text x="1170.8451" y="1816.99421528571"
font-family="Arial" font-size="20" fill="blue" >
16 35
</text>
</g>
<g>
<path stroke-width="0.01in" fill="none" stroke="#000000"
d="M 1324.09665,1793.17962 1302.49665,1793.17962 1302.49665,1782.37962 1280.89665,1782.37962 1280.89665,1793.17962 1259.29665,1793.17962 1259.29665,1814.77962 1358.81469,1852.00362 1372.99005,1835.70579 1356.69222,1821.53043 1363.77999,1813.38147 1347.48216,1799.206101 1340.39448,1807.35498 1324.09665,1793.17962 z"
id="path229"
/>
<text x="1297.05191357143" y="1818.82995364286"
font-family="Arial" font-size="20" fill="blue" >
35 45
</text>
</g>
<g>
<path stroke-width="0.01in" fill="none" stroke="#000000"
d="M 1446.79005,1793.17962 1425.19005,1793.17962 1425.19005,1782.37962 1403.59005,1782.37962 1403.59005,1793.17962 1381.99005,1793.17962 1381.99005,1814.77962 1484.91666,1849.85379 1498.10625,1832.74839 1481.00085,1819.5588 1487.5956,1811.0061 1470.4902,1797.816519 1463.89545,1806.36921 1446.79005,1793.17962 z"
id="path230"
/>
<text x="1420.43752928571" y="1817.9849835"
font-family="Arial" font-size="20" fill="blue" >
15 40
</text>
</g>
<g>
<path stroke-width="0.01in" fill="none" stroke="#000000"
d="M 1571.90625,1793.17962 1550.30625,1793.17962 1550.30625,1782.37962 1528.70625,1782.37962 1528.70625,1793.17962 1507.10625,1793.17962 1507.10625,1814.77962 1622.01843,1839.59487 1630.93176,1819.9197 1611.25659,1811.00628 1615.7133,1801.168731 1596.03813,1792.255383 1591.58142,1802.092968 1571.90625,1793.17962 z"
id="path231"
/>
<text x="1547.75640214286" y="1814.31963514286"
font-family="Arial" font-size="20" fill="blue" >
15 46
</text>
</g>
<g>
<path stroke-width="0.01in" fill="none" stroke="#000000"
d="M 1704.73176,1793.17962 1683.13176,1793.17962 1683.13176,1782.37962 1661.53176,1782.37962 1661.53176,1793.17962 1639.93176,1793.17962 1639.93176,1814.77962 1741.50018,1850.74416 1755.09279,1833.95718 1738.30572,1820.36466 1745.10198,1811.97117 1728.315,1798.37865 1721.51874,1806.77214 1704.73176,1793.17962 z"
id="path232"
/>
<text x="1678.10632071428" y="1818.33035142857"
font-family="Arial" font-size="20" fill="blue" >
46 40
</text>
</g>
<g>
<path stroke-width="0.01in" fill="none" stroke="#000000"
d="M 1828.89279,1793.17962 1807.29279,1793.17962 1807.29279,1782.37962 1785.69279,1782.37962 1785.69279,1793.17962 1764.09279,1793.17962 1764.09279,1814.77962 1865.56275,1850.80698 1879.18398,1834.04322 1862.42022,1820.42199 1869.23088,1812.0402 1852.46712,1798.418961 1845.65655,1806.80085 1828.89279,1793.17962 z"
id="path233"
/>
<text x="1802.24741571428" y="1818.35494007143"
font-family="Arial" font-size="20" fill="blue" >
25 46
</text>
</g>
<g>
<path stroke-width="0.01in" fill="none" stroke="#000000"
d="M 1952.98398,1793.17962 1931.38398,1793.17962 1931.38398,1782.37962 1909.78398,1782.37962 1909.78398,1793.17962 1888.18398,1793.17962 1888.18398,1814.77962 1995.19461,1846.88118 2007.08406,1828.84788 1989.05067,1816.95843 1994.99535,1807.94178 1976.96205,1796.052357 1971.01737,1805.06907 1952.98398,1793.17962 z"
id="path234"
/>
<text x="1927.42685357143" y="1816.87054692857"
font-family="Arial" font-size="20" fill="blue" >
16 22
</text>
</g>
<g>
<path stroke-width="0.01in" fill="none" stroke="#000000"
d="M 2080.88406,1793.17962 2059.28406,1793.17962 2059.28406,1782.37962 2037.68406,1782.37962 2037.68406,1793.17962 2016.08406,1793.17962 2016.08406,1814.77962 2125.20978,1845.14913 2136.36807,1826.65449 2117.87343,1815.4962 2123.45253,1806.24888 2104.95789,1795.090581 2099.3787,1804.33791 2080.88406,1793.17962 z"
id="path235"
/>
<text x="2055.72234857143" y="1816.24386792857"
font-family="Arial" font-size="20" fill="blue" >
22 33
</text>
</g>
<g>
<path stroke-width="0.01in" fill="none" stroke="#000000"
d="M 2210.16807,1793.17962 2188.56807,1793.17962 2188.56807,1782.37962 2166.96807,1782.37962 2166.96807,1793.17962 2145.36807,1793.17962 2145.36807,1814.77962 2253.6612,1845.84789 2265.11235,1827.53316 2246.79762,1816.08201 2252.52315,1806.9246 2234.20842,1795.473423 2228.4828,1804.63077 2210.16807,1793.17962 z"
id="path236"
/>
<text x="2184.85215" y="1816.49491521429"
font-family="Arial" font-size="20" fill="blue" >
16 38
</text>
</g>
<g>
<path stroke-width="0.01in" fill="none" stroke="#000000"
d="M 64.8,1886.95602 43.2,1886.95602 43.2,1876.15602 21.6,1876.15602 21.6,1886.95602 0,1886.95602 0,1908.55602 71.967204,1954.88415 91.62891,1945.94121 82.68597,1926.27945 92.51685,1921.80798 83.57382,1902.14622 73.742976,1906.61778 64.8,1886.95602 z"
id="path237"
/>
<text x="31.4511235714286" y="1917.308925"
font-family="Arial" font-size="20" fill="blue" >
20 33
</text>
</g>
<g>
<path stroke-width="0.01in" fill="none" stroke="#000000"
d="M 166.31685,1886.95602 144.71685,1886.95602 144.71685,1876.15602 123.11685,1876.15602 123.11685,1886.95602 101.51685,1886.95602 101.51685,1908.55602 184.72941,1952.73279 202.62114,1940.6313 190.51974,1922.73957 199.46556,1916.68887 187.36416,1898.79705 178.41825,1904.84775 166.31685,1886.95602 z"
id="path238"
/>
<text x="135.675218571429" y="1915.79182071429"
font-family="Arial" font-size="20" fill="blue" >
20 46
</text>
</g>
<g>
<path stroke-width="0.01in" fill="none" stroke="#000000"
d="M 276.42114,1886.95602 254.82114,1886.95602 254.82114,1876.15602 233.22114,1876.15602 233.22114,1886.95602 211.62114,1886.95602 211.62114,1908.55602 316.57212,1942.21449 329.13459,1924.64334 311.56344,1912.08087 317.84463,1903.29534 300.27348,1890.732879 293.99229,1899.51849 276.42114,1886.95602 z"
id="path239"
/>
<text x="250.467833571429" y="1911.22382635714"
font-family="Arial" font-size="20" fill="blue" >
44 46
</text>
</g>
<g>
<path stroke-width="0.01in" fill="none" stroke="#000000"
d="M 402.93459,1886.95602 381.33459,1886.95602 381.33459,1876.15602 359.73459,1876.15602 359.73459,1886.95602 338.13459,1886.95602 338.13459,1908.55602 383.20623,1952.35011 404.797266,1951.7292 404.176374,1930.1382 414.97191,1929.8277 414.351,1908.23661 403.5554829,1908.54711 402.93459,1886.95602 z"
id="path240"
/>
<text x="362.452498778571" y="1918.96264928571"
font-family="Arial" font-size="20" fill="blue" >
21 35
</text>
</g>
<g>
<path stroke-width="0.01in" fill="none" stroke="#000000"
d="M 488.77191,1886.95602 467.17191,1886.95602 467.17191,1876.15602 445.57191,1876.15602 445.57191,1886.95602 423.97191,1886.95602 423.97191,1908.55602 539.35524,1932.85728 548.06724,1913.0922 528.30216,1904.38011 532.65816,1894.497579 512.89308,1885.785525 508.53699,1895.668083 488.77191,1886.95602 z"
id="path241"
/>
<text x="464.699153571429" y="1907.9234955"
font-family="Arial" font-size="20" fill="blue" >
22 27
</text>
</g>
<g>
<path stroke-width="0.01in" fill="none" stroke="#000000"
d="M 621.86724,1886.95602 600.26724,1886.95602 600.26724,1876.15602 578.66724,1876.15602 578.66724,1886.95602 557.06724,1886.95602 557.06724,1908.55602 650.37384,1949.0283 666.1449,1934.26911 651.38571,1918.49805 659.27115,1911.1185 644.51196,1895.347449 636.62643,1902.72708 621.86724,1886.95602 z"
id="path242"
/>
<text x="593.503707857143" y="1913.97404635714"
font-family="Arial" font-size="20" fill="blue" >
22 42
</text>
</g>
</svg>
