<svg>
<g>
<path stroke-width="1px" fill="none" stroke="#000000"
d="M 4.98,436.299 0,430.8478 125.124,276.685 290.098,75.05 414.749,0 472.642,56.784 453.598,165.871 434.523,171.107 337.311,275.807 262.518,227.874 104.8968,434.3014 z"
id="path1"
/>
<path stroke-width="1px" fill="none" stroke="#000000"
d="M 48.1896,410.4302 47.6896,385.435 60.1872,385.1854 60.6872,410.1806 z"
id="path2"
/>
<path stroke-width="1px" fill="none" stroke="#000000"
d="M 308.142,227.421 321.631,206.372 332.155,213.117 318.666,234.165 z"
id="path3"
/>
<path stroke-width="1px" fill="none" stroke="#000000"
d="M 363.343,211.027 345.023,194.017 353.528,184.857 371.849,201.867 z"
id="path4"
/>
<path stroke-width="1px" fill="none" stroke="#000000"
d="M 431.416,146.036 424.798,121.927 436.852,118.618 443.47,142.727 z"
id="path5"
/>
<path stroke-width="1px" fill="none" stroke="#000000"
d="M 430.651,50.617 413.146,68.465 404.222,59.712 421.727,41.864 z"
id="path6"
/>
<path stroke-width="1px" fill="none" stroke="#000000"
d="M 370.673,55.719 383.568,77.137 372.859,83.585 359.964,62.167 z"
id="path7"
/>
<path stroke-width="1px" fill="none" stroke="#000000"
d="M 230.918,186.861 250.266,202.693 242.351,212.367 223.002,196.536 z"
id="path8"
/>
<text x="284.26701025641" y="195.941830769231"
font-family="Arial" font-size="30" fill="blue" >
0
</text>
</g>
<g>
<path stroke-width="1px" fill="none" stroke="#000000"
d="M 728.536,270.89 628.6104,269.3708 477.642,41.63 536.758,0 733.1048,264.9348 z"
id="path9"
/>
<path stroke-width="1px" fill="none" stroke="#000000"
d="M 685.2032,245.2284 685.5832,220.2316 673.0848,220.0412 672.704,245.0388 z"
id="path10"
/>
<text x="631.802933333333" y="197.485066666667"
font-family="Arial" font-size="30" fill="blue" >
1
</text>
</g>
<g>
<path stroke-width="1px" fill="none" stroke="#000000"
d="M 814.9498,206.9582 815.3578,199.0332 815.3658,199.0472 815.8448,189.7082 815.8378,189.6972 815.8378,189.6932 805.3588,171.3822 801.4828,164.6092 801.4828,164.6102 738.1048,53.8688 757.7388,49.6016 757.7358,49.6056 784.0468,43.8856 784.0488,43.884 784.0528,43.8832 823.9408,0 841.3028,30.7376 845.33,30.1208 847.5484,29.7816 932.4188,16.7872 939.7796,82.6288 905.6444,34.368 905.65,34.3624 902.1476,29.4112 902.1428,29.416 902.1412,29.4144 851.3004,80.8424 852.9436,84.156 854.106,86.5016 891.3052,161.5202 z"
id="path11"
/>
<path stroke-width="1px" fill="none" stroke="#000000"
d="M 845.714,159.5592 832.9292,138.0752 822.1878,144.4682 834.9724,165.9512 z"
id="path12"
/>
<path stroke-width="1px" fill="none" stroke="#000000"
d="M 801.7738,114.788 823.4728,102.3696 817.2638,91.5208 795.5648,103.9384 z"
id="path13"
/>
<text x="818.653321052632" y="98.4259578947368"
font-family="Arial" font-size="30" fill="blue" >
2
</text>
</g>
<g>
<path stroke-width="1px" fill="none" stroke="#000000"
d="M 306.5694,951.1304 55.2216,950.2384 21.076,902.4014 0,660.3064 55.3064,488.5614 165.3784,496.4318 180.8004,486.8446 187.9784,482.3838 187.9764,482.3838 254.0684,441.299 282.6834,467.335 330.4244,576.4998 419.5274,628.9194 363.3834,888.6334 z"
id="path14"
/>
<path stroke-width="1px" fill="none" stroke="#000000"
d="M 53.3656,576.147 77.1616,583.8102 73.3304,595.7084 49.5344,588.0454 z"
id="path15"
/>
<path stroke-width="1px" fill="none" stroke="#000000"
d="M 102.3248,516.987 100.5416,541.923 113.0096,542.815 114.7928,517.879 z"
id="path16"
/>
<path stroke-width="1px" fill="none" stroke="#000000"
d="M 34.9016,772.9594 59.8072,770.7904 60.8912,783.2434 35.9864,785.4114 z"
id="path17"
/>
<path stroke-width="1px" fill="none" stroke="#000000"
d="M 54.8656,906.7074 75.2128,892.1834 82.4752,902.3574 62.1272,916.8824 z"
id="path18"
/>
<path stroke-width="1px" fill="none" stroke="#000000"
d="M 174.7334,925.6614 174.8224,900.6624 187.3224,900.7064 187.2334,925.7064 z"
id="path19"
/>
<path stroke-width="1px" fill="none" stroke="#000000"
d="M 312.2724,907.6894 293.7744,890.8734 302.1834,881.6234 320.6814,898.4404 z"
id="path20"
/>
<path stroke-width="1px" fill="none" stroke="#000000"
d="M 365.6984,759.6034 341.2634,754.3204 343.9044,742.1034 368.3404,747.3854 z"
id="path21"
/>
<path stroke-width="1px" fill="none" stroke="#000000"
d="M 367.6854,627.4264 355.0084,648.9744 344.2354,642.6354 356.9124,621.0874 z"
id="path22"
/>
<path stroke-width="1px" fill="none" stroke="#000000"
d="M 286.1524,537.6606 263.2474,547.6782 258.2384,536.2254 281.1444,526.2078 z"
id="path23"
/>
<path stroke-width="1px" fill="none" stroke="#000000"
d="M 228.2294,486.7982 241.4284,508.0294 230.8124,514.6286 217.6134,493.3966 z"
id="path24"
/>
<text x="184.32702962963" y="685.606351851852"
font-family="Arial" font-size="30" fill="blue" >
3
</text>
</g>
<g>
<path stroke-width="1px" fill="none" stroke="#000000"
d="M 658.2746,703.101 458.8974,701.533 424.5274,496.8802 522.9864,441.299 675.2434,586.5018 678.3314,584.745 z"
id="path25"
/>
<path stroke-width="1px" fill="none" stroke="#000000"
d="M 644.6986,633.5834 620.0506,629.4066 617.9618,641.7306 642.6106,645.9074 z"
id="path26"
/>
<path stroke-width="1px" fill="none" stroke="#000000"
d="M 586.3842,536.3066 569.1304,554.3978 560.0854,545.7714 577.3384,527.6794 z"
id="path27"
/>
<path stroke-width="1px" fill="none" stroke="#000000"
d="M 491.4894,487.7882 503.7794,509.5594 492.8934,515.7042 480.6044,493.933 z"
id="path28"
/>
<path stroke-width="1px" fill="none" stroke="#000000"
d="M 465.3324,588.9018 489.9874,584.761 492.0574,597.089 467.4024,601.229 z"
id="path29"
/>
<path stroke-width="1px" fill="none" stroke="#000000"
d="M 552.5334,677.2682 552.7294,652.269 565.2294,652.3674 565.0334,677.3666 z"
id="path30"
/>
<text x="537.138169230769" y="587.195384615384"
font-family="Arial" font-size="30" fill="blue" >
4
</text>
</g>
<g>
<path stroke-width="1px" fill="none" stroke="#000000"
d="M 807.5888,649.131 798.2024,648.647 683.3314,441.299 934.6794,442.284 z"
id="path31"
/>
<path stroke-width="1px" fill="none" stroke="#000000"
d="M 802.6568,466.767 802.5592,491.767 815.0592,491.816 815.1568,466.816 z"
id="path32"
/>
<path stroke-width="1px" fill="none" stroke="#000000"
d="M 759.6064,527.391 781.4752,515.276 787.5328,526.21 765.664,538.325 z"
id="path33"
/>
<path stroke-width="1px" fill="none" stroke="#000000"
d="M 853.1048,527.296 831.804,514.209 825.2608,524.858 846.5616,537.946 z"
id="path34"
/>
<path stroke-width="1px" fill="none" stroke="#000000"
d="M 797.944,623.6006 799.2328,598.6342 811.716,599.279 810.4264,624.2454 z"
id="path35"
/>
<text x="791.47814" y="537.78986"
font-family="Arial" font-size="30" fill="blue" >
5
</text>
</g>
<g>
<path stroke-width="1px" fill="none" stroke="#000000"
d="M 91.7296,1078.8062 0,1074.5174 13.436,956.1304 98.164,1015.1854 z"
id="path36"
/>
<path stroke-width="1px" fill="none" stroke="#000000"
d="M 30.8536,1024.3534 55.6944,1027.1726 57.104,1014.7526 32.2632,1011.9334 z"
id="path37"
/>
<path stroke-width="1px" fill="none" stroke="#000000"
d="M 70.7024,1038.2622 45.8288,1035.747 44.5712,1048.183 69.444,1050.699 z"
id="path38"
/>
<text x="35.8159333333333" y="1031.31188333333"
font-family="Arial" font-size="30" fill="blue" >
6
</text>
</g>
<g>
<path stroke-width="1px" fill="none" stroke="#000000"
d="M 141.2184,1250.3504 103.164,1043.4264 164.9472,956.1304 310.786,1040.7488 333.375,1219.3044 296.77,1195.9324 296.778,1195.9264 291.251,1192.3984 291.243,1192.4034 291.242,1192.4024 291.239,1192.4044 285.582,1196.1624 285.582,1196.1624 206.234,1248.8854 z"
id="path39"
/>
<path stroke-width="1px" fill="none" stroke="#000000"
d="M 147.9096,1148.5124 172.4968,1143.9914 170.236,1131.6976 145.648,1136.2192 z"
id="path40"
/>
<path stroke-width="1px" fill="none" stroke="#000000"
d="M 166.9144,1224.7644 166.3512,1199.7714 178.848,1199.4894 179.4112,1224.4834 z"
id="path41"
/>
<path stroke-width="1px" fill="none" stroke="#000000"
d="M 150.8512,1019.3232 171.2576,1033.7656 178.4784,1023.5624 158.072,1009.12 z"
id="path42"
/>
<path stroke-width="1px" fill="none" stroke="#000000"
d="M 219.914,1016.9272 207.368,1038.5504 218.179,1044.8232 230.726,1023.2 z"
id="path43"
/>
<path stroke-width="1px" fill="none" stroke="#000000"
d="M 296.494,1126.9632 271.691,1130.1008 273.26,1142.5016 298.062,1139.364 z"
id="path44"
/>
<path stroke-width="1px" fill="none" stroke="#000000"
d="M 240.107,1196.3624 226.272,1175.5394 215.861,1182.4574 229.696,1203.2804 z"
id="path45"
/>
<text x="208.776736842105" y="1137.56337894737"
font-family="Arial" font-size="30" fill="blue" >
7
</text>
</g>
<g>
<path stroke-width="1px" fill="none" stroke="#000000"
d="M 367.12,1278.4634 338.375,1037.4012 361.367,956.1304 566.494,1072.7004 558.8324,1188.0904 462.069,1228.9564 457.46,1265.5964 z"
id="path46"
/>
<path stroke-width="1px" fill="none" stroke="#000000"
d="M 372.226,1009.5852 396.281,1016.3908 399.684,1004.3628 375.628,997.5572 z"
id="path47"
/>
<path stroke-width="1px" fill="none" stroke="#000000"
d="M 376.832,1148.766 401.656,1145.8052 403.136,1158.2172 378.312,1161.178 z"
id="path48"
/>
<path stroke-width="1px" fill="none" stroke="#000000"
d="M 446.145,1033.0628 433.793,1054.7988 444.661,1060.9748 457.012,1039.2388 z"
id="path49"
/>
<path stroke-width="1px" fill="none" stroke="#000000"
d="M 538.1324,1122.5028 513.1876,1120.846 512.3596,1133.3188 537.3044,1134.9748 z"
id="path50"
/>
<path stroke-width="1px" fill="none" stroke="#000000"
d="M 494.9676,1187.9244 485.2412,1164.894 496.7564,1160.0308 506.4828,1183.0614 z"
id="path51"
/>
<text x="432.463533333333" y="1113.51219259259"
font-family="Arial" font-size="30" fill="blue" >
8
</text>
</g>
<g>
<path stroke-width="1px" fill="none" stroke="#000000"
d="M 658.2838,1233.4874 579.6038,1146.7644 571.494,1026.9952 674.935,956.1304 702.623,1134.4244 z"
id="path52"
/>
<path stroke-width="1px" fill="none" stroke="#000000"
d="M 663.1166,1042.9376 638.4126,1046.7736 640.331,1059.1254 665.035,1055.2888 z"
id="path53"
/>
<path stroke-width="1px" fill="none" stroke="#000000"
d="M 600.0702,1078.9554 625.0126,1077.2664 625.8574,1089.7374 600.9142,1091.4264 z"
id="path54"
/>
<path stroke-width="1px" fill="none" stroke="#000000"
d="M 633.2598,1168.6984 651.775,1151.9004 660.1742,1161.1584 641.659,1177.9564 z"
id="path55"
/>
<text x="622.209247058823" y="1099.94272941176"
font-family="Arial" font-size="30" fill="blue" >
9
</text>
</g>
<g>
<path stroke-width="1px" fill="none" stroke="#000000"
d="M 778.0478,1104.0168 707.623,1018.4968 743.0718,956.1304 783.7462,982.2208 z"
id="path56"
/>
<path stroke-width="1px" fill="none" stroke="#000000"
d="M 755.1718,993.5928 741.6734,1014.636 731.1526,1007.8872 744.6502,986.844 z"
id="path57"
/>
<text x="733.1421" y="1007.9781"
font-family="Arial" font-size="30" fill="blue" >
10
</text>
</g>
<g>
<path stroke-width="1px" fill="none" stroke="#000000"
d="M 818.5822,1000.532 788.7462,998.4432 795.8614,956.1304 840.143,969.1336 z"
id="path58"
/>
<text x="795.8332" y="981.0598"
font-family="Arial" font-size="30" fill="blue" >
11
</text>
</g>
<g>
<path stroke-width="1px" fill="none" stroke="#000000"
d="M 917.9694,1060.216 848.7782,1017.8992 845.143,968.8688 935.4782,956.1304 958.6472,1001.1264 z"
id="path59"
/>
<path stroke-width="1px" fill="none" stroke="#000000"
d="M 901.7494,1020.9904 914.7934,999.664 904.1294,993.1424 891.0854,1014.4696 z"
id="path60"
/>
<text x="886.974844444444" y="1003.61191111111"
font-family="Arial" font-size="30" fill="blue" >
12
</text>
</g>
<g>
<path stroke-width="1px" fill="none" stroke="#000000"
d="M 80.7808,1408.2682 15.7832,1406.1782 0,1296.7242 109.552,1283.4634 79.1552,1405.1092 z"
id="path61"
/>
<path stroke-width="1px" fill="none" stroke="#000000"
d="M 63.9848,1314.161 66.9888,1338.9802 54.5792,1340.4818 51.5752,1315.6634 z"
id="path62"
/>
<path stroke-width="1px" fill="none" stroke="#000000"
d="M 55.332,1382.4362 56.136,1357.449 43.6424,1357.0474 42.8392,1382.0346 z"
id="path63"
/>
<text x="40.4114461538461" y="1352.92283076923"
font-family="Arial" font-size="30" fill="blue" >
13
</text>
</g>
<g>
<path stroke-width="1px" fill="none" stroke="#000000"
d="M 144.152,1427.661 152.4568,1401.4178 152.4608,1401.4202 154.1256,1396.1578 154.1224,1396.1554 154.1232,1396.153 114.676,1368.2418 114.552,1317.6314 137.8816,1292.201 297.782,1283.4634 376.731,1352.7874 390.969,1390.973 253.634,1319.601 z"
id="path64"
/>
<path stroke-width="1px" fill="none" stroke="#000000"
d="M 153.9416,1365.4002 168.3816,1344.9922 158.1776,1337.7722 143.7376,1358.1802 z"
id="path65"
/>
<text x="174.523811764706" y="1361.777"
font-family="Arial" font-size="30" fill="blue" >
14
</text>
</g>
<g>
<path stroke-width="1px" fill="none" stroke="#000000"
d="M 395.969,1733.9894 400.319,1402.3114 412.278,1399.4894 412.274,1399.5014 419.579,1397.7764 419.583,1397.7664 419.585,1397.7654 420.218,1396.0624 421.393,1392.8994 421.392,1392.8994 462.033,1283.4634 480.113,1311.1274 497.876,1316.6734 503.565,1318.4504 503.565,1318.4494 503.921,1318.5604 558.6086,1509.1564 558.6014,1509.1508 561.1494,1518.0228 561.1534,1518.026 561.155,1518.0308 564.5774,1520.814 567.3182,1523.0452 567.3174,1523.0436 630.331,1574.2964 599.255,1728.8434 z"
id="path66"
/>
<path stroke-width="1px" fill="none" stroke="#000000"
d="M 409.611,1425.8064 415.353,1450.1384 427.519,1447.2664 421.777,1422.9344 z"
id="path67"
/>
<path stroke-width="1px" fill="none" stroke="#000000"
d="M 423.225,1562.2292 448.222,1562.5572 448.058,1575.0548 423.061,1574.7276 z"
id="path68"
/>
<path stroke-width="1px" fill="none" stroke="#000000"
d="M 506.784,1419.1824 482.753,1426.0784 486.201,1438.0934 510.232,1431.1984 z"
id="path69"
/>
<path stroke-width="1px" fill="none" stroke="#000000"
d="M 591.5158,1640.514 567.0062,1635.5852 564.5422,1647.8404 589.0518,1652.7684 z"
id="path70"
/>
<path stroke-width="1px" fill="none" stroke="#000000"
d="M 503.228,1706.2664 502.595,1681.2744 490.099,1681.5904 490.732,1706.5824 z"
id="path71"
/>
<text x="474.6673" y="1493.63703043478"
font-family="Arial" font-size="30" fill="blue" >
15
</text>
</g>
<g>
<path stroke-width="1px" fill="none" stroke="#000000"
d="M 768.3124,1585.1264 635.331,1572.0854 700.592,1322.1386 786.3764,1319.3674 786.3748,1319.3706 804.7484,1318.7762 804.75,1318.7738 804.7532,1318.7738 825.102,1283.4634 1033.142,1292.3722 926.824,1397.1244 886.246,1403.8174 886.2484,1403.8094 880.4356,1404.7694 880.4332,1404.7764 880.4308,1404.7774 857.1908,1485.8354 z"
id="path72"
/>
<path stroke-width="1px" fill="none" stroke="#000000"
d="M 957.985,1331.3266 940.44,1313.5178 949.344,1304.745 966.89,1322.553 z"
id="path73"
/>
<path stroke-width="1px" fill="none" stroke="#000000"
d="M 759.7268,1345.241 760.534,1370.2282 748.0404,1370.6314 747.2332,1345.645 z"
id="path74"
/>
<path stroke-width="1px" fill="none" stroke="#000000"
d="M 921.8084,1312.6274 920.7388,1337.6042 933.227,1338.1394 934.296,1313.1618 z"
id="path75"
/>
<path stroke-width="1px" fill="none" stroke="#000000"
d="M 798.2932,1514.1494 779.666,1497.4754 771.3284,1506.7894 789.9564,1523.4634 z"
id="path76"
/>
<path stroke-width="1px" fill="none" stroke="#000000"
d="M 690.572,1459.4744 714.761,1465.7904 717.919,1453.6964 693.73,1447.3804 z"
id="path77"
/>
<text x="813.210286486486" y="1389.9675027027"
font-family="Arial" font-size="30" fill="blue" >
16
</text>
</g>
<g>
<path stroke-width="1px" fill="none" stroke="#000000"
d="M 199.24,1973.5948 0,1806.9518 59.0792,1738.9894 z"
id="path78"
/>
<text x="71.1064" y="1839.84533333333"
font-family="Arial" font-size="30" fill="blue" >
17
</text>
</g>
<g>
<path stroke-width="1px" fill="none" stroke="#000000"
d="M 227.2576,1784.6662 204.24,1749.5286 296.112,1738.9894 286.0496,1780.7286 z"
id="path79"
/>
<text x="238.4148" y="1763.4782"
font-family="Arial" font-size="30" fill="blue" >
18
</text>
</g>
<g>
<path stroke-width="1px" fill="none" stroke="#000000"
d="M 302.005,2028.0146 301.112,2026.6026 462.5614,1738.9894 506.931,1786.7046 446.663,1892.0586 z"
id="path80"
/>
<text x="388.85448" y="1894.47396"
font-family="Arial" font-size="30" fill="blue" >
19
</text>
</g>
<g>
<path stroke-width="1px" fill="none" stroke="#000000"
d="M 608.9766,2107.1624 571.1222,2083.0994 511.931,1880.0894 580.291,1738.9894 604.6414,1770.2046 604.6326,1770.2062 608.7542,1775.4886 608.7622,1775.487 608.7638,1775.4894 700.062,1760.7694 700.67,1742.7742 767.486,1823.8686 705.166,2060.8934 z"
id="path81"
/>
<path stroke-width="1px" fill="none" stroke="#000000"
d="M 710.809,1794.395 691.514,1810.2918 699.463,1819.939 718.757,1804.0422 z"
id="path82"
/>
<path stroke-width="1px" fill="none" stroke="#000000"
d="M 713.737,1929.9794 689.558,1923.6224 686.38,1935.7114 710.558,1942.0674 z"
id="path83"
/>
<path stroke-width="1px" fill="none" stroke="#000000"
d="M 571.335,1814.8142 593.8326,1825.715 588.383,1836.9638 565.8846,1826.0638 z"
id="path84"
/>
<path stroke-width="1px" fill="none" stroke="#000000"
d="M 651.8662,2058.7894 641.0294,2036.2594 629.7654,2041.6784 640.6022,2064.2074 z"
id="path85"
/>
<path stroke-width="1px" fill="none" stroke="#000000"
d="M 567.2766,1980.5964 591.2766,1973.5994 587.7774,1961.5984 563.7782,1968.5964 z"
id="path86"
/>
<text x="621.207339393939" y="1891.31674545455"
font-family="Arial" font-size="30" fill="blue" >
20
</text>
</g>
<g>
<path stroke-width="1px" fill="none" stroke="#000000"
d="M 1081.979,2025.4024 1152.3582,1928.0112 1151.8518,1927.4048 1150.4918,1925.776 1150.4918,1925.7768 1115.1222,1883.4344 1115.1558,1883.4344 1109.9214,1877.1714 1109.8902,1877.1714 1109.8878,1877.1684 772.486,1876.1214 812.102,1811.0034 863.744,1805.3084 1084.9958,1830.8254 1084.9846,1830.8354 1093.4142,1831.8054 1093.4238,1831.7974 1093.4262,1831.7974 1093.4278,1831.7964 1093.4286,1831.7964 1098.7926,1827.1644 1098.7902,1827.1644 1200.857,1738.9894 1310.881,1790.9184 1294.953,1876.0374 z"
id="path87"
/>
<path stroke-width="1px" fill="none" stroke="#000000"
d="M 1179.2278,1926.664 1164.8726,1906.1964 1154.639,1913.3724 1168.9934,1933.8408 z"
id="path88"
/>
<path stroke-width="1px" fill="none" stroke="#000000"
d="M 834.452,1833.6904 837.192,1858.5404 849.617,1857.1694 846.877,1832.3204 z"
id="path89"
/>
<path stroke-width="1px" fill="none" stroke="#000000"
d="M 1158.755,1808.3974 1175.0982,1827.3164 1184.557,1819.1444 1168.2142,1800.2264 z"
id="path90"
/>
<text x="1067.68518918919" y="1860.02678378378"
font-family="Arial" font-size="30" fill="blue" >
21
</text>
</g>
<g>
<path stroke-width="1px" fill="none" stroke="#000000"
d="M 233.283,2435.1944 30.168,2381.512 0,2229.4484 123.853,2207.6504 216.8094,2112.1624 z"
id="path91"
/>
<path stroke-width="1px" fill="none" stroke="#000000"
d="M 192.6046,2172.8674 210.5182,2190.3054 201.799,2199.2624 183.8854,2181.8244 z"
id="path92"
/>
<path stroke-width="1px" fill="none" stroke="#000000"
d="M 199.7606,2268.7104 174.7926,2269.9834 175.4294,2282.4674 200.3974,2281.1934 z"
id="path93"
/>
<path stroke-width="1px" fill="none" stroke="#000000"
d="M 144.1558,2385.78 150.5438,2361.6104 138.459,2358.416 132.071,2382.5864 z"
id="path94"
/>
<path stroke-width="1px" fill="none" stroke="#000000"
d="M 40.822,2306.7464 65.345,2301.8814 62.912,2289.6204 38.389,2294.4854 z"
id="path95"
/>
<text x="123.857057142857" y="2280.65277142857"
font-family="Arial" font-size="30" fill="blue" >
22
</text>
</g>
<g>
<path stroke-width="1px" fill="none" stroke="#000000"
d="M 557.4486,2309.7174 238.283,2200.2824 265.3326,2112.1624 539.8286,2207.784 z"
id="path96"
/>
<text x="385.2232" y="2207.48655"
font-family="Arial" font-size="30" fill="blue" >
23
</text>
</g>
<g>
<path stroke-width="1px" fill="none" stroke="#000000"
d="M 634.4214,2241.2884 633.8198,2221.0364 562.4486,2146.4252 580.4126,2112.1624 678.5894,2217.9092 z"
id="path97"
/>
<text x="602.93836" y="2187.76432"
font-family="Arial" font-size="30" fill="blue" >
24
</text>
</g>
<g>
<path stroke-width="1px" fill="none" stroke="#000000"
d="M 763.0542,2509.3324 718.9206,2501.3204 683.5894,2176.0464 691.2518,2185.4414 691.2398,2185.4494 694.503,2189.4504 694.515,2189.4424 694.5158,2189.4434 814.7126,2112.1624 817.5598,2443.8572 z"
id="path98"
/>
<path stroke-width="1px" fill="none" stroke="#000000"
d="M 762.8774,2175.2114 776.3974,2196.2404 786.9118,2189.4804 773.391,2168.4514 z"
id="path99"
/>
<path stroke-width="1px" fill="none" stroke="#000000"
d="M 791.083,2271.9744 766.0838,2272.1894 766.191,2284.6884 791.1902,2284.4744 z"
id="path100"
/>
<path stroke-width="1px" fill="none" stroke="#000000"
d="M 725.4334,2329.7704 750.287,2327.0704 751.6366,2339.4984 726.783,2342.1974 z"
id="path101"
/>
<path stroke-width="1px" fill="none" stroke="#000000"
d="M 775.0918,2455.7972 755.8774,2439.802 747.8806,2449.4092 767.0942,2465.4036 z"
id="path102"
/>
<text x="734.1566" y="2295.13863846154"
font-family="Arial" font-size="30" fill="blue" >
25
</text>
</g>
<g>
<path stroke-width="1px" fill="none" stroke="#000000"
d="M 824.9894,2195.2904 822.5598,2192.696 900.9414,2112.1624 927.7618,2183.5088 z"
id="path103"
/>
<text x="854.0631" y="2170.9144"
font-family="Arial" font-size="30" fill="blue" >
26
</text>
</g>
<g>
<path stroke-width="1px" fill="none" stroke="#000000"
d="M 56.26,2751.8654 0,2650.8314 39.7336,2514.3324 240.725,2575.4914 273.518,2638.4482 z"
id="path104"
/>
<path stroke-width="1px" fill="none" stroke="#000000"
d="M 46.9312,2683.725 68.7728,2671.5626 74.8544,2682.4834 53.0128,2694.6458 z"
id="path105"
/>
<path stroke-width="1px" fill="none" stroke="#000000"
d="M 42.1232,2595.5706 66.1272,2602.5578 69.6208,2590.5562 45.6176,2583.569 z"
id="path106"
/>
<path stroke-width="1px" fill="none" stroke="#000000"
d="M 147.778,2675.8866 136.21,2653.725 147.29,2647.941 158.86,2670.1018 z"
id="path107"
/>
<path stroke-width="1px" fill="none" stroke="#000000"
d="M 237.836,2624.0618 215.663,2635.6114 209.889,2624.525 232.061,2612.9762 z"
id="path108"
/>
<path stroke-width="1px" fill="none" stroke="#000000"
d="M 138.93,2570.649 131.653,2594.5658 119.694,2590.9274 126.972,2567.0098 z"
id="path109"
/>
<text x="108.205304" y="2628.1448"
font-family="Arial" font-size="30" fill="blue" >
27
</text>
</g>
<g>
<path stroke-width="1px" fill="none" stroke="#000000"
d="M 282.9748,2556.5652 278.518,2519.7516 294.99,2514.3324 300.2292,2555.9332 z"
id="path110"
/>
<text x="274.178" y="2536.6456"
font-family="Arial" font-size="30" fill="blue" >
28
</text>
</g>
<g>
<path stroke-width="1px" fill="none" stroke="#000000"
d="M 551.0112,2760.7744 305.2292,2612.998 336.0892,2514.3324 427.6556,2521.3068 539.0852,2696.7544 541.0902,2697.1304 545.1712,2697.8944 545.1712,2697.8944 670.4222,2721.3344 z"
id="path111"
/>
<path stroke-width="1px" fill="none" stroke="#000000"
d="M 342.6532,2577.0924 366.5132,2584.5556 370.2444,2572.626 346.3844,2565.1628 z"
id="path112"
/>
<path stroke-width="1px" fill="none" stroke="#000000"
d="M 435.6452,2662.2394 448.5272,2640.8144 459.2402,2647.2544 446.3582,2668.6804 z"
id="path113"
/>
<path stroke-width="1px" fill="none" stroke="#000000"
d="M 458.9152,2617.1584 437.8122,2630.5614 444.5142,2641.1124 465.6172,2627.7104 z"
id="path114"
/>
<text x="436.588095238095" y="2635.97083809524"
font-family="Arial" font-size="30" fill="blue" >
29
</text>
</g>
<g>
<path stroke-width="1px" fill="none" stroke="#000000"
d="M 695.747,2618.2884 675.4222,2596.2516 699.7838,2514.3324 709.1838,2514.3504 756.4086,2592.4316 754.079,2609.958 z"
id="path115"
/>
<path stroke-width="1px" fill="none" stroke="#000000"
d="M 698.1846,2539.33 698.1358,2564.33 710.6358,2564.354 710.6846,2539.354 z"
id="path116"
/>
<text x="695.82652" y="2565.29804"
font-family="Arial" font-size="30" fill="blue" >
30
</text>
</g>
<g>
<path stroke-width="1px" fill="none" stroke="#000000"
d="M 855.3596,2677.3836 832.8576,2666.626 761.4086,2530.3964 873.0436,2514.3324 937.4916,2599.6804 z"
id="path117"
/>
<path stroke-width="1px" fill="none" stroke="#000000"
d="M 883.7852,2616.0756 866.6036,2597.9164 857.5236,2606.506 874.7044,2624.6668 z"
id="path118"
/>
<path stroke-width="1px" fill="none" stroke="#000000"
d="M 889.0836,2577.0596 869.1324,2592.1252 861.5996,2582.15 881.5508,2567.0844 z"
id="path119"
/>
<path stroke-width="1px" fill="none" stroke="#000000"
d="M 826.9736,2546.2196 830.5336,2570.9644 818.1616,2572.7452 814.6006,2547.9996 z"
id="path120"
/>
<text x="839.965505882353" y="2587.64303529412"
font-family="Arial" font-size="30" fill="blue" >
31
</text>
</g>
<g>
<path stroke-width="1px" fill="none" stroke="#000000"
d="M 229.584,2881.1534 46.126,2842.087 0,2765.7744 199.3712,2768.0214 z"
id="path121"
/>
<path stroke-width="1px" fill="none" stroke="#000000"
d="M 93.154,2791.8262 92.873,2816.8246 105.372,2816.9654 105.654,2791.967 z"
id="path122"
/>
<path stroke-width="1px" fill="none" stroke="#000000"
d="M 188.7112,2824.9998 164.5584,2831.4502 167.7832,2843.527 191.9368,2837.0766 z"
id="path123"
/>
<path stroke-width="1px" fill="none" stroke="#000000"
d="M 149.1752,2838.4702 154.3824,2814.019 142.1568,2811.415 136.9496,2835.867 z"
id="path124"
/>
<text x="120.4867375" y="2819.4652625"
font-family="Arial" font-size="30" fill="blue" >
32
</text>
</g>
<g>
<path stroke-width="1px" fill="none" stroke="#000000"
d="M 310.7232,3220.4324 266.1472,3165.1904 234.584,2843.2824 267.792,2765.7744 383.586,2871.0528 414.802,3196.7484 z"
id="path125"
/>
<path stroke-width="1px" fill="none" stroke="#000000"
d="M 313.496,2841.116 296.6776,2859.6128 287.4288,2851.204 304.2472,2832.7072 z"
id="path126"
/>
<path stroke-width="1px" fill="none" stroke="#000000"
d="M 373.711,3030.0644 348.826,3032.4494 350.018,3044.8924 374.904,3042.5074 z"
id="path127"
/>
<path stroke-width="1px" fill="none" stroke="#000000"
d="M 274.636,2995.5764 299.5168,2993.1364 300.7368,3005.5764 275.856,3008.0164 z"
id="path128"
/>
<path stroke-width="1px" fill="none" stroke="#000000"
d="M 351.121,3185.6004 345.574,3161.2234 357.762,3158.4494 363.309,3182.8264 z"
id="path129"
/>
<path stroke-width="1px" fill="none" stroke="#000000"
d="M 311.816,3181.9764 331.272,3166.2764 323.4224,3156.5484 303.9664,3172.2484 z"
id="path130"
/>
<text x="306.766592307692" y="3037.09573846154"
font-family="Arial" font-size="30" fill="blue" >
33
</text>
</g>
<g>
<path stroke-width="1px" fill="none" stroke="#000000"
d="M 419.802,2870.1804 438.142,2785.5488 546.055,2765.7744 554.135,2814.2712 z"
id="path131"
/>
<path stroke-width="1px" fill="none" stroke="#000000"
d="M 483.1326,2816.744 473.527,2793.6632 461.9862,2798.4664 471.5926,2821.5472 z"
id="path132"
/>
<text x="466.04655" y="2808.27445"
font-family="Arial" font-size="30" fill="blue" >
34
</text>
</g>
<g>
<path stroke-width="1px" fill="none" stroke="#000000"
d="M 805.097,2923.5004 755.885,2891.1034 766.911,2872.1244 559.135,2858.3656 608.631,2765.7744 785.31,2783.0248 z"
id="path133"
/>
<path stroke-width="1px" fill="none" stroke="#000000"
d="M 658.4382,2839.8864 660.0894,2814.9408 672.5622,2815.7664 670.9102,2840.712 z"
id="path134"
/>
<path stroke-width="1px" fill="none" stroke="#000000"
d="M 688.3206,2798.6736 685.891,2823.5552 698.3318,2824.7704 700.7614,2799.8888 z"
id="path135"
/>
<path stroke-width="1px" fill="none" stroke="#000000"
d="M 771.32,2862.9384 746.564,2866.4254 744.821,2854.0472 769.576,2850.5608 z"
id="path136"
/>
<text x="693.253044444444" y="2838.11435555556"
font-family="Arial" font-size="30" fill="blue" >
35
</text>
</g>
<g>
<path stroke-width="1px" fill="none" stroke="#000000"
d="M 812.0178,2915.0128 810.097,2765.7744 821.3586,2784.6368 824.6722,2784.5368 826.6178,2784.4784 826.6178,2784.4776 1083.4816,2776.72 1134.7126,2785.3656 1110.5496,2895.1198 843.1442,2864.536 z"
id="path137"
/>
<path stroke-width="1px" fill="none" stroke="#000000"
d="M 836.1354,2846.3208 861.133,2845.9992 860.9722,2833.5 835.9746,2833.8216 z"
id="path138"
/>
<path stroke-width="1px" fill="none" stroke="#000000"
d="M 1111.0986,2806.7344 1106.9376,2831.3856 1094.6126,2829.3048 1098.7726,2804.6536 z"
id="path139"
/>
<text x="923.8281" y="2820.68767777778"
font-family="Arial" font-size="30" fill="blue" >
36
</text>
</g>
<g>
<path stroke-width="1px" fill="none" stroke="#000000"
d="M 0,3254.0756 20.6344,3225.4324 288.6524,3250.086 290.6724,3253.0188 z"
id="path140"
/>
<text x="134.9898" y="3245.6532"
font-family="Arial" font-size="30" fill="blue" >
37
</text>
</g>
<g>
<path stroke-width="1px" fill="none" stroke="#000000"
d="M 488.3274,3504.8974 306.606,3404.0226 295.6724,3341.0154 307.1628,3357.7082 307.1652,3357.7058 307.1652,3357.7066 310.6332,3353.9466 429.2074,3225.4324 500.9574,3246.885 z"
id="path141"
/>
<path stroke-width="1px" fill="none" stroke="#000000"
d="M 324.702,3362.0858 349.334,3357.8114 351.4716,3370.1274 326.8396,3374.4018 z"
id="path142"
/>
<path stroke-width="1px" fill="none" stroke="#000000"
d="M 404.1354,3429.5682 416.2694,3407.7106 427.1984,3413.777 415.0644,3435.6354 z"
id="path143"
/>
<path stroke-width="1px" fill="none" stroke="#000000"
d="M 390.7972,3303.9298 409.1714,3320.8826 400.6944,3330.0698 382.3212,3313.117 z"
id="path144"
/>
<path stroke-width="1px" fill="none" stroke="#000000"
d="M 451.9324,3258.321 444.7704,3282.273 456.7464,3285.8538 463.9084,3261.9018 z"
id="path145"
/>
<path stroke-width="1px" fill="none" stroke="#000000"
d="M 469.3664,3380.9114 444.3964,3379.689 445.0074,3367.2042 469.9774,3368.4258 z"
id="path146"
/>
<text x="381.448317241379" y="3350.10402758621"
font-family="Arial" font-size="30" fill="blue" >
38
</text>
</g>
<g>
<path stroke-width="1px" fill="none" stroke="#000000"
d="M 589.7662,3401.9428 505.9574,3343.6924 588.6782,3225.4324 650.5494,3309.5604 z"
id="path147"
/>
<path stroke-width="1px" fill="none" stroke="#000000"
d="M 595.771,3277.2732 575.6318,3292.0852 583.0374,3302.1556 603.1774,3287.3436 z"
id="path148"
/>
<path stroke-width="1px" fill="none" stroke="#000000"
d="M 556.9982,3348.722 571.2662,3328.1932 581.5302,3335.3276 567.2622,3355.8564 z"
id="path149"
/>
<text x="565.802133333333" y="3317.29873333333"
font-family="Arial" font-size="30" fill="blue" >
39
</text>
</g>
<g>
<path stroke-width="1px" fill="none" stroke="#000000"
d="M 674.8966,3481.4434 655.5494,3447.2842 683.8326,3292.2014 869.1686,3321.0604 920.4956,3225.4324 920.9706,3468.4426 z"
id="path150"
/>
<path stroke-width="1px" fill="none" stroke="#000000"
d="M 895.7206,3340.7364 870.7206,3340.7854 870.7446,3353.2854 895.7446,3353.2364 z"
id="path151"
/>
<path stroke-width="1px" fill="none" stroke="#000000"
d="M 802.8546,3449.6482 801.5366,3424.6834 789.0536,3425.3426 790.3726,3450.3074 z"
id="path152"
/>
<path stroke-width="1px" fill="none" stroke="#000000"
d="M 778.8296,3332.2954 774.9826,3356.9974 762.6318,3355.0744 766.4782,3330.3724 z"
id="path153"
/>
<path stroke-width="1px" fill="none" stroke="#000000"
d="M 695.4062,3368.0804 720.0006,3372.5654 717.7582,3384.8634 693.1638,3380.3774 z"
id="path154"
/>
<path stroke-width="1px" fill="none" stroke="#000000"
d="M 683.895,3446.605 705.6486,3434.2842 711.8086,3445.161 690.0558,3457.4818 z"
id="path155"
/>
<text x="759.704623076923" y="3386.07876153846"
font-family="Arial" font-size="30" fill="blue" >
40
</text>
</g>
<g>
<path stroke-width="1px" fill="none" stroke="#000000"
d="M 172.414,3707.1416 20.892,3675.5746 0,3573.4766 39.5704,3509.8974 185.086,3595.071 z"
id="path156"
/>
<path stroke-width="1px" fill="none" stroke="#000000"
d="M 105.093,3577.2166 92.464,3598.7918 81.676,3592.4774 94.3048,3570.903 z"
id="path157"
/>
<path stroke-width="1px" fill="none" stroke="#000000"
d="M 154.61,3642.0862 129.768,3639.2774 128.363,3651.6982 153.206,3654.5078 z"
id="path158"
/>
<path stroke-width="1px" fill="none" stroke="#000000"
d="M 44.3128,3549.591 65.5376,3562.8006 58.932,3573.4134 37.7072,3560.203 z"
id="path159"
/>
<path stroke-width="1px" fill="none" stroke="#000000"
d="M 36.1912,3625.6374 60.684,3620.6254 58.1776,3608.379 33.6856,3613.391 z"
id="path160"
/>
<text x="68.4607238095238" y="3604.86478095238"
font-family="Arial" font-size="30" fill="blue" >
41
</text>
</g>
<g>
<path stroke-width="1px" fill="none" stroke="#000000"
d="M 407.552,3867.0464 190.086,3775.534 196.456,3509.8974 471.6856,3590.4944 480.876,3745.2484 z"
id="path161"
/>
<path stroke-width="1px" fill="none" stroke="#000000"
d="M 218.114,3649.5636 243.107,3650.1628 243.406,3637.6664 218.414,3637.0674 z"
id="path162"
/>
<path stroke-width="1px" fill="none" stroke="#000000"
d="M 302.755,3795.8228 312.451,3772.7796 323.973,3777.6284 314.276,3800.6708 z"
id="path163"
/>
<path stroke-width="1px" fill="none" stroke="#000000"
d="M 321.047,3572.4324 314.021,3596.4244 326.018,3599.9384 333.043,3575.9454 z"
id="path164"
/>
<path stroke-width="1px" fill="none" stroke="#000000"
d="M 419.5728,3798.6068 398.1544,3785.7132 404.6016,3775.0036 426.0192,3787.898 z"
id="path165"
/>
<path stroke-width="1px" fill="none" stroke="#000000"
d="M 451.6952,3675.5932 426.7392,3677.0756 425.9984,3664.5972 450.9544,3663.1148 z"
id="path166"
/>
<text x="329.840632" y="3695.277016"
font-family="Arial" font-size="30" fill="blue" >
42
</text>
</g>
<g>
<path stroke-width="1px" fill="none" stroke="#000000"
d="M 710.148,3566.1006 485.876,3509.8974 747.8896,3520.843 z"
id="path167"
/>
<text x="632.9712" y="3532.28033333333"
font-family="Arial" font-size="30" fill="blue" >
43
</text>
</g>
<g>
<path stroke-width="1px" fill="none" stroke="#000000"
d="M 965.8636,3795.9114 882.0732,3779.0794 889.5892,3747.4626 889.6036,3747.4698 890.894,3742.0386 890.8804,3742.0314 890.8812,3742.029 752.8896,3667.5934 780.4576,3525.5694 1026.3748,3509.8974 1032.2988,3568.3704 z"
id="path168"
/>
<path stroke-width="1px" fill="none" stroke="#000000"
d="M 1003.834,3535.4364 978.9612,3537.9554 980.2212,3550.3924 1005.094,3547.8724 z"
id="path169"
/>
<path stroke-width="1px" fill="none" stroke="#000000"
d="M 911.2444,3542.2854 912.834,3567.2354 900.3596,3568.0294 898.7692,3543.0814 z"
id="path170"
/>
<path stroke-width="1px" fill="none" stroke="#000000"
d="M 976.8348,3669.1354 952.8372,3662.1284 949.334,3674.1274 973.3316,3681.1334 z"
id="path171"
/>
<path stroke-width="1px" fill="none" stroke="#000000"
d="M 839.2546,3685.7754 851.1236,3663.7724 840.1216,3657.8384 828.2536,3679.8414 z"
id="path172"
/>
<path stroke-width="1px" fill="none" stroke="#000000"
d="M 790.0246,3607.4814 814.5666,3612.2454 816.9486,3599.9744 792.4066,3595.2104 z"
id="path173"
/>
<text x="885.263258064516" y="3637.04531612903"
font-family="Arial" font-size="30" fill="blue" >
44
</text>
</g>
<g>
<path stroke-width="1px" fill="none" stroke="#000000"
d="M 29.32,4053.5924 0,3878.5104 160.007,3872.0464 175.226,3943.0394 z"
id="path174"
/>
<path stroke-width="1px" fill="none" stroke="#000000"
d="M 38.284,3955.7588 62.94,3951.6294 65.0048,3963.958 40.348,3968.0868 z"
id="path175"
/>
<text x="56.391225" y="3948.3277"
font-family="Arial" font-size="30" fill="blue" >
45
</text>
</g>
<g>
<path stroke-width="1px" fill="none" stroke="#000000"
d="M 373.396,4034.1408 180.226,3948.1056 228.0708,3877.6176 431.344,3872.0464 445.448,3908.6848 z"
id="path176"
/>
<path stroke-width="1px" fill="none" stroke="#000000"
d="M 336.64,3899.6512 337.324,3924.6424 324.829,3924.9848 324.144,3899.9936 z"
id="path177"
/>
<path stroke-width="1px" fill="none" stroke="#000000"
d="M 412.82,3893.5144 389.488,3902.496 393.98,3914.1616 417.31,3905.18 z"
id="path178"
/>
<path stroke-width="1px" fill="none" stroke="#000000"
d="M 228.3428,3921.7304 249.0284,3935.7712 242.0084,3946.1136 221.3228,3932.0736 z"
id="path179"
/>
<path stroke-width="1px" fill="none" stroke="#000000"
d="M 281.273,3965.7424 291.444,3942.9064 302.863,3947.992 292.692,3970.828 z"
id="path180"
/>
<path stroke-width="1px" fill="none" stroke="#000000"
d="M 384.63,3964.3816 362.952,3951.9304 369.176,3941.092 390.856,3953.5416 z"
id="path181"
/>
<text x="313.464328" y="3931.172896"
font-family="Arial" font-size="30" fill="blue" >
46
</text>
</g>
<g>
<path stroke-width="1px" fill="none" stroke="#000000"
d="M 552.969,3937.5544 450.448,3872.0464 633.501,3873.44 659.704,3912.1824 z"
id="path182"
/>
<text x="559.1555" y="3898.8058"
font-family="Arial" font-size="30" fill="blue" >
47
</text>
</g>
<g>
<path stroke-width="1px" fill="none" stroke="#000000"
d="M 664.704,3924.5168 672.6896,3878.4336 745.0144,3872.0464 753.9072,3905.392 z"
id="path183"
/>
<text x="694.0788" y="3895.0972"
font-family="Arial" font-size="30" fill="blue" >
48
</text>
</g>
<g>
<path stroke-width="1px" fill="none" stroke="#000000"
d="M 758.9072,3877.808 762.5272,3872.0464 763.768,3873.1832 z"
id="path184"
/>
<text x="746.734133333333" y="3874.34586666667"
font-family="Arial" font-size="30" fill="blue" >
49
</text>
</g>
</svg>
